{"asset":{"generator":"FBX2glTF v0.9.7","version":"2.0"},"scene":0,"buffers":[{"byteLength":159108,"uri":"data:application/octet-stream;base64,"}],"bufferViews":[{"buffer":0,"byteLength":64,"byteOffset":0},{"buffer":0,"byteLength":192,"byteOffset":64},{"buffer":0,"byteLength":256,"byteOffset":256},{"buffer":0,"byteLength":256,"byteOffset":512},{"buffer":0,"byteLength":256,"byteOffset":768},{"buffer":0,"byteLength":256,"byteOffset":1024},{"buffer":0,"byteLength":256,"byteOffset":1280},{"buffer":0,"byteLength":256,"byteOffset":1536},{"buffer":0,"byteLength":292,"byteOffset":1792},{"buffer":0,"byteLength":1168,"byteOffset":2084},{"buffer":0,"byteLength":1168,"byteOffset":3252},{"buffer":0,"byteLength":1168,"byteOffset":4420},{"buffer":0,"byteLength":1168,"byteOffset":5588},{"buffer":0,"byteLength":1168,"byteOffset":6756},{"buffer":0,"byteLength":1168,"byteOffset":7924},{"buffer":0,"byteLength":148,"byteOffset":9092},{"buffer":0,"byteLength":444,"byteOffset":9240},{"buffer":0,"byteLength":592,"byteOffset":9684},{"buffer":0,"byteLength":592,"byteOffset":10276},{"buffer":0,"byteLength":592,"byteOffset":10868},{"buffer":0,"byteLength":592,"byteOffset":11460},{"buffer":0,"byteLength":592,"byteOffset":12052},{"buffer":0,"byteLength":592,"byteOffset":12644},{"buffer":0,"byteLength":104,"byteOffset":13236},{"buffer":0,"byteLength":416,"byteOffset":13340},{"buffer":0,"byteLength":416,"byteOffset":13756},{"buffer":0,"byteLength":416,"byteOffset":14172},{"buffer":0,"byteLength":416,"byteOffset":14588},{"buffer":0,"byteLength":416,"byteOffset":15004},{"buffer":0,"byteLength":416,"byteOffset":15420},{"buffer":0,"byteLength":116,"byteOffset":15836},{"buffer":0,"byteLength":464,"byteOffset":15952},{"buffer":0,"byteLength":464,"byteOffset":16416},{"buffer":0,"byteLength":464,"byteOffset":16880},{"buffer":0,"byteLength":464,"byteOffset":17344},{"buffer":0,"byteLength":464,"byteOffset":17808},{"buffer":0,"byteLength":464,"byteOffset":18272},{"buffer":0,"byteLength":224,"byteOffset":18736},{"buffer":0,"byteLength":896,"byteOffset":18960},{"buffer":0,"byteLength":896,"byteOffset":19856},{"buffer":0,"byteLength":896,"byteOffset":20752},{"buffer":0,"byteLength":896,"byteOffset":21648},{"buffer":0,"byteLength":896,"byteOffset":22544},{"buffer":0,"byteLength":896,"byteOffset":23440},{"buffer":0,"byteLength":1080,"byteOffset":24336,"target":34963},{"buffer":0,"byteLength":5040,"byteOffset":25416,"target":34962},{"buffer":0,"byteLength":5040,"byteOffset":30456,"target":34962},{"buffer":0,"byteLength":3360,"byteOffset":35496,"target":34962},{"buffer":0,"byteLength":6720,"byteOffset":38856,"target":34962},{"buffer":0,"byteLength":2148,"byteOffset":45576,"target":34963},{"buffer":0,"byteLength":4488,"byteOffset":47724,"target":34962},{"buffer":0,"byteLength":4488,"byteOffset":52212,"target":34962},{"buffer":0,"byteLength":2992,"byteOffset":56700,"target":34962},{"buffer":0,"byteLength":5984,"byteOffset":59692,"target":34962},{"buffer":0,"byteLength":2952,"byteOffset":65676,"target":34963},{"buffer":0,"byteLength":10152,"byteOffset":68628,"target":34962},{"buffer":0,"byteLength":10152,"byteOffset":78780,"target":34962},{"buffer":0,"byteLength":6768,"byteOffset":88932,"target":34962},{"buffer":0,"byteLength":13536,"byteOffset":95700,"target":34962},{"buffer":0,"byteLength":240,"byteOffset":109236,"target":34963},{"buffer":0,"byteLength":288,"byteOffset":109476,"target":34962},{"buffer":0,"byteLength":288,"byteOffset":109764,"target":34962},{"buffer":0,"byteLength":192,"byteOffset":110052,"target":34962},{"buffer":0,"byteLength":384,"byteOffset":110244,"target":34962},{"buffer":0,"byteLength":2880,"byteOffset":110628,"target":34963},{"buffer":0,"byteLength":3144,"byteOffset":113508,"target":34962},{"buffer":0,"byteLength":3144,"byteOffset":116652,"target":34962},{"buffer":0,"byteLength":2096,"byteOffset":119796,"target":34962},{"buffer":0,"byteLength":4192,"byteOffset":121892,"target":34962},{"buffer":0,"byteLength":1920,"byteOffset":126084,"target":34963},{"buffer":0,"byteLength":7680,"byteOffset":128004,"target":34962},{"buffer":0,"byteLength":7680,"byteOffset":135684,"target":34962},{"buffer":0,"byteLength":5120,"byteOffset":143364,"target":34962},{"buffer":0,"byteLength":10240,"byteOffset":148484,"target":34962},{"buffer":0,"byteLength":384,"byteOffset":158724}],"scenes":[{"name":"Root Scene","nodes":[0]}],"accessors":[{"componentType":5126,"type":"SCALAR","count":16,"bufferView":0,"byteOffset":0,"min":[0],"max":[0.625]},{"componentType":5126,"type":"VEC3","count":16,"bufferView":1,"byteOffset":0},{"componentType":5126,"type":"VEC4","count":16,"bufferView":2,"byteOffset":0},{"componentType":5126,"type":"VEC4","count":16,"bufferView":3,"byteOffset":0},{"componentType":5126,"type":"VEC4","count":16,"bufferView":4,"byteOffset":0},{"componentType":5126,"type":"VEC4","count":16,"bufferView":5,"byteOffset":0},{"componentType":5126,"type":"VEC4","count":16,"bufferView":6,"byteOffset":0},{"componentType":5126,"type":"VEC4","count":16,"bufferView":7,"byteOffset":0},{"componentType":5126,"type":"SCALAR","count":73,"bufferView":8,"byteOffset":0,"min":[0],"max":[3]},{"componentType":5126,"type":"VEC4","count":73,"bufferView":9,"byteOffset":0},{"componentType":5126,"type":"VEC4","count":73,"bufferView":10,"byteOffset":0},{"componentType":5126,"type":"VEC4","count":73,"bufferView":11,"byteOffset":0},{"componentType":5126,"type":"VEC4","count":73,"bufferView":12,"byteOffset":0},{"componentType":5126,"type":"VEC4","count":73,"bufferView":13,"byteOffset":0},{"componentType":5126,"type":"VEC4","count":73,"bufferView":14,"byteOffset":0},{"componentType":5126,"type":"SCALAR","count":37,"bufferView":15,"byteOffset":0,"min":[0],"max":[1.5]},{"componentType":5126,"type":"VEC3","count":37,"bufferView":16,"byteOffset":0},{"componentType":5126,"type":"VEC4","count":37,"bufferView":17,"byteOffset":0},{"componentType":5126,"type":"VEC4","count":37,"bufferView":18,"byteOffset":0},{"componentType":5126,"type":"VEC4","count":37,"bufferView":19,"byteOffset":0},{"componentType":5126,"type":"VEC4","count":37,"bufferView":20,"byteOffset":0},{"componentType":5126,"type":"VEC4","count":37,"bufferView":21,"byteOffset":0},{"componentType":5126,"type":"VEC4","count":37,"bufferView":22,"byteOffset":0},{"componentType":5126,"type":"SCALAR","count":26,"bufferView":23,"byteOffset":0,"min":[0],"max":[1.04166662693024]},{"componentType":5126,"type":"VEC4","count":26,"bufferView":24,"byteOffset":0},{"componentType":5126,"type":"VEC4","count":26,"bufferView":25,"byteOffset":0},{"componentType":5126,"type":"VEC4","count":26,"bufferView":26,"byteOffset":0},{"componentType":5126,"type":"VEC4","count":26,"bufferView":27,"byteOffset":0},{"componentType":5126,"type":"VEC4","count":26,"bufferView":28,"byteOffset":0},{"componentType":5126,"type":"VEC4","count":26,"bufferView":29,"byteOffset":0},{"componentType":5126,"type":"SCALAR","count":29,"bufferView":30,"byteOffset":0,"min":[0],"max":[1.16666662693024]},{"componentType":5126,"type":"VEC4","count":29,"bufferView":31,"byteOffset":0},{"componentType":5126,"type":"VEC4","count":29,"bufferView":32,"byteOffset":0},{"componentType":5126,"type":"VEC4","count":29,"bufferView":33,"byteOffset":0},{"componentType":5126,"type":"VEC4","count":29,"bufferView":34,"byteOffset":0},{"componentType":5126,"type":"VEC4","count":29,"bufferView":35,"byteOffset":0},{"componentType":5126,"type":"VEC4","count":29,"bufferView":36,"byteOffset":0},{"componentType":5126,"type":"SCALAR","count":56,"bufferView":37,"byteOffset":0,"min":[0],"max":[2.29166674613953]},{"componentType":5126,"type":"VEC4","count":56,"bufferView":38,"byteOffset":0},{"componentType":5126,"type":"VEC4","count":56,"bufferView":39,"byteOffset":0},{"componentType":5126,"type":"VEC4","count":56,"bufferView":40,"byteOffset":0},{"componentType":5126,"type":"VEC4","count":56,"bufferView":41,"byteOffset":0},{"componentType":5126,"type":"VEC4","count":56,"bufferView":42,"byteOffset":0},{"componentType":5126,"type":"VEC4","count":56,"bufferView":43,"byteOffset":0},{"componentType":5123,"type":"SCALAR","count":540,"bufferView":44,"byteOffset":0},{"componentType":5126,"type":"VEC3","count":420,"bufferView":45,"byteOffset":0,"min":[-0.00836969073861837,-0.0190689750015736,-0.00508734444156289],"max":[0.00836969073861837,-0.0110580502077937,0.00145491026341915]},{"componentType":5126,"type":"VEC3","count":420,"bufferView":46,"byteOffset":0},{"componentType":5123,"type":"VEC4","count":420,"bufferView":47,"byteOffset":0},{"componentType":5126,"type":"VEC4","count":420,"bufferView":48,"byteOffset":0},{"componentType":5123,"type":"SCALAR","count":1074,"bufferView":49,"byteOffset":0},{"componentType":5126,"type":"VEC3","count":374,"bufferView":50,"byteOffset":0,"min":[-0.019023634493351,-0.000860111322253942,-0.00938436761498451],"max":[0.019023634493351,0.0285066738724709,0.0130163580179214]},{"componentType":5126,"type":"VEC3","count":374,"bufferView":51,"byteOffset":0},{"componentType":5123,"type":"VEC4","count":374,"bufferView":52,"byteOffset":0},{"componentType":5126,"type":"VEC4","count":374,"bufferView":53,"byteOffset":0},{"componentType":5123,"type":"SCALAR","count":1476,"bufferView":54,"byteOffset":0},{"componentType":5126,"type":"VEC3","count":846,"bufferView":55,"byteOffset":0,"min":[-0.0137032251805067,-0.0254034679383039,-0.0111667877063155],"max":[0.0137032251805067,0.0224747266620398,0.0225189458578825]},{"componentType":5126,"type":"VEC3","count":846,"bufferView":56,"byteOffset":0},{"componentType":5123,"type":"VEC4","count":846,"bufferView":57,"byteOffset":0},{"componentType":5126,"type":"VEC4","count":846,"bufferView":58,"byteOffset":0},{"componentType":5123,"type":"SCALAR","count":120,"bufferView":59,"byteOffset":0},{"componentType":5126,"type":"VEC3","count":24,"bufferView":60,"byteOffset":0,"min":[-0.00168439850676805,-0.0267904512584209,0.00492614042013884],"max":[0.00168439850676805,-0.0240369606763124,0.0128982421010733]},{"componentType":5126,"type":"VEC3","count":24,"bufferView":61,"byteOffset":0},{"componentType":5123,"type":"VEC4","count":24,"bufferView":62,"byteOffset":0},{"componentType":5126,"type":"VEC4","count":24,"bufferView":63,"byteOffset":0},{"componentType":5123,"type":"SCALAR","count":1440,"bufferView":64,"byteOffset":0},{"componentType":5126,"type":"VEC3","count":262,"bufferView":65,"byteOffset":0,"min":[-0.0109777981415391,-0.0161190330982208,0.000569058756809682],"max":[0.0109777981415391,-0.00990723073482513,0.00749716814607382]},{"componentType":5126,"type":"VEC3","count":262,"bufferView":66,"byteOffset":0},{"componentType":5123,"type":"VEC4","count":262,"bufferView":67,"byteOffset":0},{"componentType":5126,"type":"VEC4","count":262,"bufferView":68,"byteOffset":0},{"componentType":5123,"type":"SCALAR","count":960,"bufferView":69,"byteOffset":0},{"componentType":5126,"type":"VEC3","count":640,"bufferView":70,"byteOffset":0,"min":[-0.010278906673193,-0.0157178174704313,-0.000433995242929086],"max":[0.010278906673193,-0.00844174344092607,0.00790958106517792]},{"componentType":5126,"type":"VEC3","count":640,"bufferView":71,"byteOffset":0},{"componentType":5123,"type":"VEC4","count":640,"bufferView":72,"byteOffset":0},{"componentType":5126,"type":"VEC4","count":640,"bufferView":73,"byteOffset":0},{"componentType":5126,"type":"MAT4","count":6,"bufferView":74,"byteOffset":0}],"samplers":[{}],"materials":[{"name":"Anglerfish_Teeth","alphaMode":"OPAQUE","extras":{"fromFBX":{"shadingModel":"Phong","isTruePBR":false}},"pbrMetallicRoughness":{"baseColorFactor":[0.249310538172722,0.201879620552063,0.165897369384766,1],"metallicFactor":0.400000005960464,"roughnessFactor":0.415087103843689}},{"name":"Anglerfish_Fins","alphaMode":"OPAQUE","extras":{"fromFBX":{"shadingModel":"Phong","isTruePBR":false}},"pbrMetallicRoughness":{"baseColorFactor":[0.413862854242325,0.405704498291016,0.29275569319725,1],"metallicFactor":0.400000005960464,"roughnessFactor":0.415087103843689}},{"name":"Anglerfish_Main","alphaMode":"OPAQUE","extras":{"fromFBX":{"shadingModel":"Phong","isTruePBR":false}},"pbrMetallicRoughness":{"baseColorFactor":[0.0810254737734795,0.0222918223589659,0.0132380276918411,1],"metallicFactor":0.400000005960464,"roughnessFactor":0.415087103843689}},{"name":"Light","alphaMode":"OPAQUE","extras":{"fromFBX":{"shadingModel":"Phong","isTruePBR":false}},"pbrMetallicRoughness":{"baseColorFactor":[0.299563616514206,0.738802075386047,0.800000011920929,1],"metallicFactor":0.400000005960464,"roughnessFactor":0.415087103843689}},{"name":"Eyes","alphaMode":"OPAQUE","extras":{"fromFBX":{"shadingModel":"Phong","isTruePBR":false}},"pbrMetallicRoughness":{"baseColorFactor":[0.00797184184193611,0.00797184184193611,0.00797184184193611,1],"metallicFactor":0.400000005960464,"roughnessFactor":0.415087103843689}},{"name":"Anglerfish_Light","alphaMode":"OPAQUE","extras":{"fromFBX":{"shadingModel":"Phong","isTruePBR":false}},"pbrMetallicRoughness":{"baseColorFactor":[0.160359591245651,0.0412508212029934,0.0235322769731283,1],"metallicFactor":0.400000005960464,"roughnessFactor":0.415087103843689}}],"meshes":[{"name":"Anglerfish","primitives":[{"material":0,"mode":4,"attributes":{"JOINTS_0":47,"NORMAL":46,"POSITION":45,"WEIGHTS_0":48},"indices":44},{"material":1,"mode":4,"attributes":{"JOINTS_0":52,"NORMAL":51,"POSITION":50,"WEIGHTS_0":53},"indices":49},{"material":2,"mode":4,"attributes":{"JOINTS_0":57,"NORMAL":56,"POSITION":55,"WEIGHTS_0":58},"indices":54},{"material":3,"mode":4,"attributes":{"JOINTS_0":62,"NORMAL":61,"POSITION":60,"WEIGHTS_0":63},"indices":59},{"material":4,"mode":4,"attributes":{"JOINTS_0":67,"NORMAL":66,"POSITION":65,"WEIGHTS_0":68},"indices":64},{"material":5,"mode":4,"attributes":{"JOINTS_0":72,"NORMAL":71,"POSITION":70,"WEIGHTS_0":73},"indices":69}]}],"skins":[{"joints":[2,3,4,5,6,7],"inverseBindMatrices":74,"skeleton":2}],"animations":[{"name":"Fish_Armature|Attack","channels":[{"sampler":0,"target":{"node":2,"path":"translation"}},{"sampler":1,"target":{"node":2,"path":"rotation"}},{"sampler":2,"target":{"node":3,"path":"rotation"}},{"sampler":3,"target":{"node":4,"path":"rotation"}},{"sampler":4,"target":{"node":5,"path":"rotation"}},{"sampler":5,"target":{"node":6,"path":"rotation"}},{"sampler":6,"target":{"node":7,"path":"rotation"}}],"samplers":[{"input":0,"interpolation":"LINEAR","output":1},{"input":0,"interpolation":"LINEAR","output":2},{"input":0,"interpolation":"LINEAR","output":3},{"input":0,"interpolation":"LINEAR","output":4},{"input":0,"interpolation":"LINEAR","output":5},{"input":0,"interpolation":"LINEAR","output":6},{"input":0,"interpolation":"LINEAR","output":7}]},{"name":"Fish_Armature|Death","channels":[{"sampler":0,"target":{"node":2,"path":"rotation"}},{"sampler":1,"target":{"node":3,"path":"rotation"}},{"sampler":2,"target":{"node":4,"path":"rotation"}},{"sampler":3,"target":{"node":5,"path":"rotation"}},{"sampler":4,"target":{"node":6,"path":"rotation"}},{"sampler":5,"target":{"node":7,"path":"rotation"}}],"samplers":[{"input":8,"interpolation":"LINEAR","output":9},{"input":8,"interpolation":"LINEAR","output":10},{"input":8,"interpolation":"LINEAR","output":11},{"input":8,"interpolation":"LINEAR","output":12},{"input":8,"interpolation":"LINEAR","output":13},{"input":8,"interpolation":"LINEAR","output":14}]},{"name":"Fish_Armature|Out_Of_Water","channels":[{"sampler":0,"target":{"node":2,"path":"translation"}},{"sampler":1,"target":{"node":2,"path":"rotation"}},{"sampler":2,"target":{"node":3,"path":"rotation"}},{"sampler":3,"target":{"node":4,"path":"rotation"}},{"sampler":4,"target":{"node":5,"path":"rotation"}},{"sampler":5,"target":{"node":6,"path":"rotation"}},{"sampler":6,"target":{"node":7,"path":"rotation"}}],"samplers":[{"input":15,"interpolation":"LINEAR","output":16},{"input":15,"interpolation":"LINEAR","output":17},{"input":15,"interpolation":"LINEAR","output":18},{"input":15,"interpolation":"LINEAR","output":19},{"input":15,"interpolation":"LINEAR","output":20},{"input":15,"interpolation":"LINEAR","output":21},{"input":15,"interpolation":"LINEAR","output":22}]},{"name":"Fish_Armature|Swimming_Fast","channels":[{"sampler":0,"target":{"node":2,"path":"rotation"}},{"sampler":1,"target":{"node":3,"path":"rotation"}},{"sampler":2,"target":{"node":4,"path":"rotation"}},{"sampler":3,"target":{"node":5,"path":"rotation"}},{"sampler":4,"target":{"node":6,"path":"rotation"}},{"sampler":5,"target":{"node":7,"path":"rotation"}}],"samplers":[{"input":23,"interpolation":"LINEAR","output":24},{"input":23,"interpolation":"LINEAR","output":25},{"input":23,"interpolation":"LINEAR","output":26},{"input":23,"interpolation":"LINEAR","output":27},{"input":23,"interpolation":"LINEAR","output":28},{"input":23,"interpolation":"LINEAR","output":29}]},{"name":"Fish_Armature|Swimming_Impulse","channels":[{"sampler":0,"target":{"node":2,"path":"rotation"}},{"sampler":1,"target":{"node":3,"path":"rotation"}},{"sampler":2,"target":{"node":4,"path":"rotation"}},{"sampler":3,"target":{"node":5,"path":"rotation"}},{"sampler":4,"target":{"node":6,"path":"rotation"}},{"sampler":5,"target":{"node":7,"path":"rotation"}}],"samplers":[{"input":30,"interpolation":"LINEAR","output":31},{"input":30,"interpolation":"LINEAR","output":32},{"input":30,"interpolation":"LINEAR","output":33},{"input":30,"interpolation":"LINEAR","output":34},{"input":30,"interpolation":"LINEAR","output":35},{"input":30,"interpolation":"LINEAR","output":36}]},{"name":"Fish_Armature|Swimming_Normal","channels":[{"sampler":0,"target":{"node":2,"path":"rotation"}},{"sampler":1,"target":{"node":3,"path":"rotation"}},{"sampler":2,"target":{"node":4,"path":"rotation"}},{"sampler":3,"target":{"node":5,"path":"rotation"}},{"sampler":4,"target":{"node":6,"path":"rotation"}},{"sampler":5,"target":{"node":7,"path":"rotation"}}],"samplers":[{"input":37,"interpolation":"LINEAR","output":38},{"input":37,"interpolation":"LINEAR","output":39},{"input":37,"interpolation":"LINEAR","output":40},{"input":37,"interpolation":"LINEAR","output":41},{"input":37,"interpolation":"LINEAR","output":42},{"input":37,"interpolation":"LINEAR","output":43}]}],"nodes":[{"name":"RootNode","translation":[0,0,0],"rotation":[0,0,0,1],"scale":[1,1,1],"children":[1,9]},{"name":"Fish_Armature","translation":[0,0,0],"rotation":[-0.707106828689575,0,0,0.707106709480286],"scale":[100,100,100],"children":[2]},{"name":"Main1","translation":[-2.22044620641463e-18,-0.0166770722717047,-2.98023217215615e-10],"rotation":[-0.00000315280863105727,-0.00000315280863105727,0.00138983421493322,0.999999046325684],"scale":[1,1,1],"children":[3]},{"name":"Main2","translation":[7.42387108818715e-13,0.0105604268610477,3.55271359939116e-17],"rotation":[-0.00611731223762035,0.0525101833045483,0.00332338875159621,0.998596131801605],"scale":[0.999999761581421,1,1],"children":[4]},{"name":"Main3","translation":[1.1641531922485e-12,0.00819601118564606,0],"rotation":[-0.00000312097631649522,-0.00000311822509502235,0.0255163758993149,0.999674379825592],"scale":[0.99999988079071,0.99999988079071,0.999999940395355],"children":[5]},{"name":"Main4","translation":[-1.16415308382828e-12,0.00692633725702763,-4.65661276899398e-12],"rotation":[-0.00794409494847059,-0.0010504286037758,0.106258019804955,0.994306325912476],"scale":[1,1,1],"children":[6]},{"name":"Main5","translation":[-3.06172281971939e-10,0.00665868632495403,6.93889374881086e-20],"rotation":[0.00794037058949471,-0.000883383501786739,0.110568657517433,0.993836402893066],"scale":[1,1,1],"children":[7]},{"name":"Main6","translation":[1.69966360430429e-10,0.00551155908033252,-1.86264510759759e-11],"rotation":[1.37683207057648e-8,1.4701765138625e-8,0.0674024298787117,0.99772584438324],"scale":[0.99999988079071,0.99999988079071,1],"children":[8]},{"name":"Main6_end","translation":[1.11022299980974e-18,0.00692071672528982,1.38777874976217e-19],"rotation":[1.73472347597681e-18,4.33680868994202e-18,-2.77555756156289e-17,1],"scale":[1,1,1]},{"name":"Anglerfish","translation":[0,0,0],"rotation":[-0.707106828689575,0,0,0.707106709480286],"scale":[100,100,100],"mesh":0,"skin":0}]}