{"asset":{"generator":"FBX2glTF v0.9.7","version":"2.0"},"scene":0,"buffers":[{"byteLength":193428,"uri":"data:application/octet-stream;base64,"}],"bufferViews":[{"buffer":0,"byteLength":64,"byteOffset":0},{"buffer":0,"byteLength":192,"byteOffset":64},{"buffer":0,"byteLength":256,"byteOffset":256},{"buffer":0,"byteLength":256,"byteOffset":512},{"buffer":0,"byteLength":256,"byteOffset":768},{"buffer":0,"byteLength":256,"byteOffset":1024},{"buffer":0,"byteLength":256,"byteOffset":1280},{"buffer":0,"byteLength":256,"byteOffset":1536},{"buffer":0,"byteLength":292,"byteOffset":1792},{"buffer":0,"byteLength":1168,"byteOffset":2084},{"buffer":0,"byteLength":1168,"byteOffset":3252},{"buffer":0,"byteLength":1168,"byteOffset":4420},{"buffer":0,"byteLength":1168,"byteOffset":5588},{"buffer":0,"byteLength":1168,"byteOffset":6756},{"buffer":0,"byteLength":1168,"byteOffset":7924},{"buffer":0,"byteLength":148,"byteOffset":9092},{"buffer":0,"byteLength":444,"byteOffset":9240},{"buffer":0,"byteLength":592,"byteOffset":9684},{"buffer":0,"byteLength":592,"byteOffset":10276},{"buffer":0,"byteLength":592,"byteOffset":10868},{"buffer":0,"byteLength":592,"byteOffset":11460},{"buffer":0,"byteLength":592,"byteOffset":12052},{"buffer":0,"byteLength":592,"byteOffset":12644},{"buffer":0,"byteLength":104,"byteOffset":13236},{"buffer":0,"byteLength":416,"byteOffset":13340},{"buffer":0,"byteLength":416,"byteOffset":13756},{"buffer":0,"byteLength":416,"byteOffset":14172},{"buffer":0,"byteLength":416,"byteOffset":14588},{"buffer":0,"byteLength":416,"byteOffset":15004},{"buffer":0,"byteLength":416,"byteOffset":15420},{"buffer":0,"byteLength":116,"byteOffset":15836},{"buffer":0,"byteLength":464,"byteOffset":15952},{"buffer":0,"byteLength":464,"byteOffset":16416},{"buffer":0,"byteLength":464,"byteOffset":16880},{"buffer":0,"byteLength":464,"byteOffset":17344},{"buffer":0,"byteLength":464,"byteOffset":17808},{"buffer":0,"byteLength":464,"byteOffset":18272},{"buffer":0,"byteLength":224,"byteOffset":18736},{"buffer":0,"byteLength":896,"byteOffset":18960},{"buffer":0,"byteLength":896,"byteOffset":19856},{"buffer":0,"byteLength":896,"byteOffset":20752},{"buffer":0,"byteLength":896,"byteOffset":21648},{"buffer":0,"byteLength":896,"byteOffset":22544},{"buffer":0,"byteLength":896,"byteOffset":23440},{"buffer":0,"byteLength":2880,"byteOffset":24336,"target":34963},{"buffer":0,"byteLength":3144,"byteOffset":27216,"target":34962},{"buffer":0,"byteLength":3144,"byteOffset":30360,"target":34962},{"buffer":0,"byteLength":2096,"byteOffset":33504,"target":34962},{"buffer":0,"byteLength":4192,"byteOffset":35600,"target":34962},{"buffer":0,"byteLength":2736,"byteOffset":39792,"target":34963},{"buffer":0,"byteLength":11040,"byteOffset":42528,"target":34962},{"buffer":0,"byteLength":11040,"byteOffset":53568,"target":34962},{"buffer":0,"byteLength":7360,"byteOffset":64608,"target":34962},{"buffer":0,"byteLength":14720,"byteOffset":71968,"target":34962},{"buffer":0,"byteLength":3204,"byteOffset":86688,"target":34963},{"buffer":0,"byteLength":12888,"byteOffset":89892,"target":34962},{"buffer":0,"byteLength":12888,"byteOffset":102780,"target":34962},{"buffer":0,"byteLength":8592,"byteOffset":115668,"target":34962},{"buffer":0,"byteLength":17184,"byteOffset":124260,"target":34962},{"buffer":0,"byteLength":3024,"byteOffset":141444,"target":34963},{"buffer":0,"byteLength":12144,"byteOffset":144468,"target":34962},{"buffer":0,"byteLength":12144,"byteOffset":156612,"target":34962},{"buffer":0,"byteLength":8096,"byteOffset":168756,"target":34962},{"buffer":0,"byteLength":16192,"byteOffset":176852,"target":34962},{"buffer":0,"byteLength":384,"byteOffset":193044}],"scenes":[{"name":"Root Scene","nodes":[0]}],"accessors":[{"componentType":5126,"type":"SCALAR","count":16,"bufferView":0,"byteOffset":0,"min":[0],"max":[0.625]},{"componentType":5126,"type":"VEC3","count":16,"bufferView":1,"byteOffset":0},{"componentType":5126,"type":"VEC4","count":16,"bufferView":2,"byteOffset":0},{"componentType":5126,"type":"VEC4","count":16,"bufferView":3,"byteOffset":0},{"componentType":5126,"type":"VEC4","count":16,"bufferView":4,"byteOffset":0},{"componentType":5126,"type":"VEC4","count":16,"bufferView":5,"byteOffset":0},{"componentType":5126,"type":"VEC4","count":16,"bufferView":6,"byteOffset":0},{"componentType":5126,"type":"VEC4","count":16,"bufferView":7,"byteOffset":0},{"componentType":5126,"type":"SCALAR","count":73,"bufferView":8,"byteOffset":0,"min":[0],"max":[3]},{"componentType":5126,"type":"VEC4","count":73,"bufferView":9,"byteOffset":0},{"componentType":5126,"type":"VEC4","count":73,"bufferView":10,"byteOffset":0},{"componentType":5126,"type":"VEC4","count":73,"bufferView":11,"byteOffset":0},{"componentType":5126,"type":"VEC4","count":73,"bufferView":12,"byteOffset":0},{"componentType":5126,"type":"VEC4","count":73,"bufferView":13,"byteOffset":0},{"componentType":5126,"type":"VEC4","count":73,"bufferView":14,"byteOffset":0},{"componentType":5126,"type":"SCALAR","count":37,"bufferView":15,"byteOffset":0,"min":[0],"max":[1.5]},{"componentType":5126,"type":"VEC3","count":37,"bufferView":16,"byteOffset":0},{"componentType":5126,"type":"VEC4","count":37,"bufferView":17,"byteOffset":0},{"componentType":5126,"type":"VEC4","count":37,"bufferView":18,"byteOffset":0},{"componentType":5126,"type":"VEC4","count":37,"bufferView":19,"byteOffset":0},{"componentType":5126,"type":"VEC4","count":37,"bufferView":20,"byteOffset":0},{"componentType":5126,"type":"VEC4","count":37,"bufferView":21,"byteOffset":0},{"componentType":5126,"type":"VEC4","count":37,"bufferView":22,"byteOffset":0},{"componentType":5126,"type":"SCALAR","count":26,"bufferView":23,"byteOffset":0,"min":[0],"max":[1.04166662693024]},{"componentType":5126,"type":"VEC4","count":26,"bufferView":24,"byteOffset":0},{"componentType":5126,"type":"VEC4","count":26,"bufferView":25,"byteOffset":0},{"componentType":5126,"type":"VEC4","count":26,"bufferView":26,"byteOffset":0},{"componentType":5126,"type":"VEC4","count":26,"bufferView":27,"byteOffset":0},{"componentType":5126,"type":"VEC4","count":26,"bufferView":28,"byteOffset":0},{"componentType":5126,"type":"VEC4","count":26,"bufferView":29,"byteOffset":0},{"componentType":5126,"type":"SCALAR","count":29,"bufferView":30,"byteOffset":0,"min":[0],"max":[1.16666662693024]},{"componentType":5126,"type":"VEC4","count":29,"bufferView":31,"byteOffset":0},{"componentType":5126,"type":"VEC4","count":29,"bufferView":32,"byteOffset":0},{"componentType":5126,"type":"VEC4","count":29,"bufferView":33,"byteOffset":0},{"componentType":5126,"type":"VEC4","count":29,"bufferView":34,"byteOffset":0},{"componentType":5126,"type":"VEC4","count":29,"bufferView":35,"byteOffset":0},{"componentType":5126,"type":"VEC4","count":29,"bufferView":36,"byteOffset":0},{"componentType":5126,"type":"SCALAR","count":56,"bufferView":37,"byteOffset":0,"min":[0],"max":[2.29166674613953]},{"componentType":5126,"type":"VEC4","count":56,"bufferView":38,"byteOffset":0},{"componentType":5126,"type":"VEC4","count":56,"bufferView":39,"byteOffset":0},{"componentType":5126,"type":"VEC4","count":56,"bufferView":40,"byteOffset":0},{"componentType":5126,"type":"VEC4","count":56,"bufferView":41,"byteOffset":0},{"componentType":5126,"type":"VEC4","count":56,"bufferView":42,"byteOffset":0},{"componentType":5126,"type":"VEC4","count":56,"bufferView":43,"byteOffset":0},{"componentType":5123,"type":"SCALAR","count":1440,"bufferView":44,"byteOffset":0},{"componentType":5126,"type":"VEC3","count":262,"bufferView":45,"byteOffset":0,"min":[-0.0117386048659682,-0.0145131153985858,-0.000277564628049731],"max":[0.0117386048659682,-0.00868149381130934,0.00640371441841125]},{"componentType":5126,"type":"VEC3","count":262,"bufferView":46,"byteOffset":0},{"componentType":5123,"type":"VEC4","count":262,"bufferView":47,"byteOffset":0},{"componentType":5126,"type":"VEC4","count":262,"bufferView":48,"byteOffset":0},{"componentType":5123,"type":"SCALAR","count":1368,"bufferView":49,"byteOffset":0},{"componentType":5126,"type":"VEC3","count":920,"bufferView":50,"byteOffset":0,"min":[-0.0149388592690229,-0.0141703672707081,-0.00830777082592249],"max":[0.014938872307539,0.00041998052620329,0.00694018835201859]},{"componentType":5126,"type":"VEC3","count":920,"bufferView":51,"byteOffset":0},{"componentType":5123,"type":"VEC4","count":920,"bufferView":52,"byteOffset":0},{"componentType":5126,"type":"VEC4","count":920,"bufferView":53,"byteOffset":0},{"componentType":5123,"type":"SCALAR","count":1602,"bufferView":54,"byteOffset":0},{"componentType":5126,"type":"VEC3","count":1074,"bufferView":55,"byteOffset":0,"min":[-0.0126845706254244,-0.0279046259820461,-0.0111667877063155],"max":[0.0126845818012953,0.0224747266620398,0.0433424785733223]},{"componentType":5126,"type":"VEC3","count":1074,"bufferView":56,"byteOffset":0},{"componentType":5123,"type":"VEC4","count":1074,"bufferView":57,"byteOffset":0},{"componentType":5126,"type":"VEC4","count":1074,"bufferView":58,"byteOffset":0},{"componentType":5123,"type":"SCALAR","count":1512,"bufferView":59,"byteOffset":0},{"componentType":5126,"type":"VEC3","count":1012,"bufferView":60,"byteOffset":0,"min":[-0.0192066002637148,-0.0305012762546539,-0.0137460716068745],"max":[0.0192066133022308,0.0384050831198692,0.0468932129442692]},{"componentType":5126,"type":"VEC3","count":1012,"bufferView":61,"byteOffset":0},{"componentType":5123,"type":"VEC4","count":1012,"bufferView":62,"byteOffset":0},{"componentType":5126,"type":"VEC4","count":1012,"bufferView":63,"byteOffset":0},{"componentType":5126,"type":"MAT4","count":6,"bufferView":64,"byteOffset":0}],"samplers":[{}],"materials":[{"name":"Eyes","alphaMode":"OPAQUE","extras":{"fromFBX":{"shadingModel":"Phong","isTruePBR":false}},"pbrMetallicRoughness":{"baseColorFactor":[0.00797184184193611,0.00797184184193611,0.00797184184193611,1],"metallicFactor":0.400000005960464,"roughnessFactor":0.415087103843689}},{"name":"BlackLionFish_Dark","alphaMode":"OPAQUE","extras":{"fromFBX":{"shadingModel":"Phong","isTruePBR":false}},"pbrMetallicRoughness":{"baseColorFactor":[0.0325465053319931,0.0325465053319931,0.0325465053319931,1],"metallicFactor":0.400000005960464,"roughnessFactor":0.415087103843689}},{"name":"BlackLionFish_Main","alphaMode":"OPAQUE","extras":{"fromFBX":{"shadingModel":"Phong","isTruePBR":false}},"pbrMetallicRoughness":{"baseColorFactor":[0.0110214110463858,0.0110214110463858,0.0110214110463858,1],"metallicFactor":0.400000005960464,"roughnessFactor":0.415087103843689}},{"name":"BlackLionFish_Light","alphaMode":"OPAQUE","extras":{"fromFBX":{"shadingModel":"Phong","isTruePBR":false}},"pbrMetallicRoughness":{"baseColorFactor":[0.22044925391674,0.22044925391674,0.22044925391674,1],"metallicFactor":0.400000005960464,"roughnessFactor":0.415087103843689}}],"meshes":[{"name":"BlackLionFish","primitives":[{"material":0,"mode":4,"attributes":{"JOINTS_0":47,"NORMAL":46,"POSITION":45,"WEIGHTS_0":48},"indices":44},{"material":1,"mode":4,"attributes":{"JOINTS_0":52,"NORMAL":51,"POSITION":50,"WEIGHTS_0":53},"indices":49},{"material":2,"mode":4,"attributes":{"JOINTS_0":57,"NORMAL":56,"POSITION":55,"WEIGHTS_0":58},"indices":54},{"material":3,"mode":4,"attributes":{"JOINTS_0":62,"NORMAL":61,"POSITION":60,"WEIGHTS_0":63},"indices":59}]}],"skins":[{"joints":[2,3,4,5,6,7],"inverseBindMatrices":64,"skeleton":2}],"animations":[{"name":"Fish_Armature|Attack","channels":[{"sampler":0,"target":{"node":2,"path":"translation"}},{"sampler":1,"target":{"node":2,"path":"rotation"}},{"sampler":2,"target":{"node":3,"path":"rotation"}},{"sampler":3,"target":{"node":4,"path":"rotation"}},{"sampler":4,"target":{"node":5,"path":"rotation"}},{"sampler":5,"target":{"node":6,"path":"rotation"}},{"sampler":6,"target":{"node":7,"path":"rotation"}}],"samplers":[{"input":0,"interpolation":"LINEAR","output":1},{"input":0,"interpolation":"LINEAR","output":2},{"input":0,"interpolation":"LINEAR","output":3},{"input":0,"interpolation":"LINEAR","output":4},{"input":0,"interpolation":"LINEAR","output":5},{"input":0,"interpolation":"LINEAR","output":6},{"input":0,"interpolation":"LINEAR","output":7}]},{"name":"Fish_Armature|Death","channels":[{"sampler":0,"target":{"node":2,"path":"rotation"}},{"sampler":1,"target":{"node":3,"path":"rotation"}},{"sampler":2,"target":{"node":4,"path":"rotation"}},{"sampler":3,"target":{"node":5,"path":"rotation"}},{"sampler":4,"target":{"node":6,"path":"rotation"}},{"sampler":5,"target":{"node":7,"path":"rotation"}}],"samplers":[{"input":8,"interpolation":"LINEAR","output":9},{"input":8,"interpolation":"LINEAR","output":10},{"input":8,"interpolation":"LINEAR","output":11},{"input":8,"interpolation":"LINEAR","output":12},{"input":8,"interpolation":"LINEAR","output":13},{"input":8,"interpolation":"LINEAR","output":14}]},{"name":"Fish_Armature|Out_Of_Water","channels":[{"sampler":0,"target":{"node":2,"path":"translation"}},{"sampler":1,"target":{"node":2,"path":"rotation"}},{"sampler":2,"target":{"node":3,"path":"rotation"}},{"sampler":3,"target":{"node":4,"path":"rotation"}},{"sampler":4,"target":{"node":5,"path":"rotation"}},{"sampler":5,"target":{"node":6,"path":"rotation"}},{"sampler":6,"target":{"node":7,"path":"rotation"}}],"samplers":[{"input":15,"interpolation":"LINEAR","output":16},{"input":15,"interpolation":"LINEAR","output":17},{"input":15,"interpolation":"LINEAR","output":18},{"input":15,"interpolation":"LINEAR","output":19},{"input":15,"interpolation":"LINEAR","output":20},{"input":15,"interpolation":"LINEAR","output":21},{"input":15,"interpolation":"LINEAR","output":22}]},{"name":"Fish_Armature|Swimming_Fast","channels":[{"sampler":0,"target":{"node":2,"path":"rotation"}},{"sampler":1,"target":{"node":3,"path":"rotation"}},{"sampler":2,"target":{"node":4,"path":"rotation"}},{"sampler":3,"target":{"node":5,"path":"rotation"}},{"sampler":4,"target":{"node":6,"path":"rotation"}},{"sampler":5,"target":{"node":7,"path":"rotation"}}],"samplers":[{"input":23,"interpolation":"LINEAR","output":24},{"input":23,"interpolation":"LINEAR","output":25},{"input":23,"interpolation":"LINEAR","output":26},{"input":23,"interpolation":"LINEAR","output":27},{"input":23,"interpolation":"LINEAR","output":28},{"input":23,"interpolation":"LINEAR","output":29}]},{"name":"Fish_Armature|Swimming_Impulse","channels":[{"sampler":0,"target":{"node":2,"path":"rotation"}},{"sampler":1,"target":{"node":3,"path":"rotation"}},{"sampler":2,"target":{"node":4,"path":"rotation"}},{"sampler":3,"target":{"node":5,"path":"rotation"}},{"sampler":4,"target":{"node":6,"path":"rotation"}},{"sampler":5,"target":{"node":7,"path":"rotation"}}],"samplers":[{"input":30,"interpolation":"LINEAR","output":31},{"input":30,"interpolation":"LINEAR","output":32},{"input":30,"interpolation":"LINEAR","output":33},{"input":30,"interpolation":"LINEAR","output":34},{"input":30,"interpolation":"LINEAR","output":35},{"input":30,"interpolation":"LINEAR","output":36}]},{"name":"Fish_Armature|Swimming_Normal","channels":[{"sampler":0,"target":{"node":2,"path":"rotation"}},{"sampler":1,"target":{"node":3,"path":"rotation"}},{"sampler":2,"target":{"node":4,"path":"rotation"}},{"sampler":3,"target":{"node":5,"path":"rotation"}},{"sampler":4,"target":{"node":6,"path":"rotation"}},{"sampler":5,"target":{"node":7,"path":"rotation"}}],"samplers":[{"input":37,"interpolation":"LINEAR","output":38},{"input":37,"interpolation":"LINEAR","output":39},{"input":37,"interpolation":"LINEAR","output":40},{"input":37,"interpolation":"LINEAR","output":41},{"input":37,"interpolation":"LINEAR","output":42},{"input":37,"interpolation":"LINEAR","output":43}]}],"nodes":[{"name":"RootNode","translation":[0,0,0],"rotation":[0,0,0,1],"scale":[1,1,1],"children":[1,9]},{"name":"Fish_Armature","translation":[0,0,0],"rotation":[-0.707106828689575,0,0,0.707106709480286],"scale":[100,100,100],"children":[2]},{"name":"Main1","translation":[-2.22044620641463e-18,-0.0166770722717047,-2.98023217215615e-10],"rotation":[-0.00000315063221023593,-0.00000315063221023593,0.0371742881834507,0.999308824539185],"scale":[0.99999988079071,0.99999988079071,1],"children":[3]},{"name":"Main2","translation":[-5.40351238146469e-13,0.0136009138077497,6.25277604080756e-15],"rotation":[-0.00476015685126185,0.0408604629337788,0.0201132409274578,0.998951077461243],"scale":[1,0.99999988079071,1],"children":[4]},{"name":"Main3","translation":[1.99652266941186e-10,0.0093962037935853,1.3969838306982e-11],"rotation":[-0.00000312236670652055,-0.0000031185829811875,0.00831428542733192,0.99996542930603],"scale":[0.999999821186066,0.999999821186066,1.00000011920929],"children":[5]},{"name":"Main4","translation":[1.97906049187457e-11,0.00692633865401149,1.73472343720272e-20],"rotation":[-0.00798847526311874,0.000142284814501181,-0.0146239213645458,0.999861121177673],"scale":[0.999999940395355,1,1],"children":[6]},{"name":"Main5","translation":[-2.09547570267921e-11,0.00665868725627661,-6.93889374881086e-20],"rotation":[0.00796506274491549,0.000622612598817796,-0.0779257863759995,0.99692714214325],"scale":[0.99999988079071,1,1],"children":[7]},{"name":"Main6","translation":[3.49245965480804e-10,0.00599163863807917,3.72529021519519e-11],"rotation":[1.51712296059259e-8,1.3363030682001e-8,-0.141961738467216,0.9898721575737],"scale":[0.99999988079071,0.99999988079071,1],"children":[8]},{"name":"Main6_end","translation":[0,0.00692071672528982,-1.38777874976217e-19],"rotation":[3.46944695195361e-18,-7.80625564189563e-18,2.77555756156289e-17,1],"scale":[1,1,1]},{"name":"BlackLionFish","translation":[0,0,0],"rotation":[-0.707106828689575,0,0,0.707106709480286],"scale":[100,100,100],"mesh":0,"skin":0}]}