{"asset":{"generator":"FBX2glTF v0.9.7","version":"2.0"},"scene":0,"buffers":[{"byteLength":131364,"uri":"data:application/octet-stream;base64,"}],"bufferViews":[{"buffer":0,"byteLength":64,"byteOffset":0},{"buffer":0,"byteLength":192,"byteOffset":64},{"buffer":0,"byteLength":256,"byteOffset":256},{"buffer":0,"byteLength":256,"byteOffset":512},{"buffer":0,"byteLength":256,"byteOffset":768},{"buffer":0,"byteLength":256,"byteOffset":1024},{"buffer":0,"byteLength":256,"byteOffset":1280},{"buffer":0,"byteLength":256,"byteOffset":1536},{"buffer":0,"byteLength":292,"byteOffset":1792},{"buffer":0,"byteLength":1168,"byteOffset":2084},{"buffer":0,"byteLength":1168,"byteOffset":3252},{"buffer":0,"byteLength":1168,"byteOffset":4420},{"buffer":0,"byteLength":1168,"byteOffset":5588},{"buffer":0,"byteLength":1168,"byteOffset":6756},{"buffer":0,"byteLength":1168,"byteOffset":7924},{"buffer":0,"byteLength":148,"byteOffset":9092},{"buffer":0,"byteLength":444,"byteOffset":9240},{"buffer":0,"byteLength":592,"byteOffset":9684},{"buffer":0,"byteLength":592,"byteOffset":10276},{"buffer":0,"byteLength":592,"byteOffset":10868},{"buffer":0,"byteLength":592,"byteOffset":11460},{"buffer":0,"byteLength":592,"byteOffset":12052},{"buffer":0,"byteLength":592,"byteOffset":12644},{"buffer":0,"byteLength":104,"byteOffset":13236},{"buffer":0,"byteLength":416,"byteOffset":13340},{"buffer":0,"byteLength":416,"byteOffset":13756},{"buffer":0,"byteLength":416,"byteOffset":14172},{"buffer":0,"byteLength":416,"byteOffset":14588},{"buffer":0,"byteLength":416,"byteOffset":15004},{"buffer":0,"byteLength":416,"byteOffset":15420},{"buffer":0,"byteLength":116,"byteOffset":15836},{"buffer":0,"byteLength":464,"byteOffset":15952},{"buffer":0,"byteLength":464,"byteOffset":16416},{"buffer":0,"byteLength":464,"byteOffset":16880},{"buffer":0,"byteLength":464,"byteOffset":17344},{"buffer":0,"byteLength":464,"byteOffset":17808},{"buffer":0,"byteLength":464,"byteOffset":18272},{"buffer":0,"byteLength":224,"byteOffset":18736},{"buffer":0,"byteLength":896,"byteOffset":18960},{"buffer":0,"byteLength":896,"byteOffset":19856},{"buffer":0,"byteLength":896,"byteOffset":20752},{"buffer":0,"byteLength":896,"byteOffset":21648},{"buffer":0,"byteLength":896,"byteOffset":22544},{"buffer":0,"byteLength":896,"byteOffset":23440},{"buffer":0,"byteLength":2064,"byteOffset":24336,"target":34963},{"buffer":0,"byteLength":8256,"byteOffset":26400,"target":34962},{"buffer":0,"byteLength":8256,"byteOffset":34656,"target":34962},{"buffer":0,"byteLength":5504,"byteOffset":42912,"target":34962},{"buffer":0,"byteLength":11008,"byteOffset":48416,"target":34962},{"buffer":0,"byteLength":876,"byteOffset":59424,"target":34963},{"buffer":0,"byteLength":3624,"byteOffset":60300,"target":34962},{"buffer":0,"byteLength":3624,"byteOffset":63924,"target":34962},{"buffer":0,"byteLength":2416,"byteOffset":67548,"target":34962},{"buffer":0,"byteLength":4832,"byteOffset":69964,"target":34962},{"buffer":0,"byteLength":2424,"byteOffset":74796,"target":34963},{"buffer":0,"byteLength":9576,"byteOffset":77220,"target":34962},{"buffer":0,"byteLength":9576,"byteOffset":86796,"target":34962},{"buffer":0,"byteLength":6384,"byteOffset":96372,"target":34962},{"buffer":0,"byteLength":12768,"byteOffset":102756,"target":34962},{"buffer":0,"byteLength":2880,"byteOffset":115524,"target":34963},{"buffer":0,"byteLength":3144,"byteOffset":118404,"target":34962},{"buffer":0,"byteLength":3144,"byteOffset":121548,"target":34962},{"buffer":0,"byteLength":2096,"byteOffset":124692,"target":34962},{"buffer":0,"byteLength":4192,"byteOffset":126788,"target":34962},{"buffer":0,"byteLength":384,"byteOffset":130980}],"scenes":[{"name":"Root Scene","nodes":[0]}],"accessors":[{"componentType":5126,"type":"SCALAR","count":16,"bufferView":0,"byteOffset":0,"min":[0],"max":[0.625]},{"componentType":5126,"type":"VEC3","count":16,"bufferView":1,"byteOffset":0},{"componentType":5126,"type":"VEC4","count":16,"bufferView":2,"byteOffset":0},{"componentType":5126,"type":"VEC4","count":16,"bufferView":3,"byteOffset":0},{"componentType":5126,"type":"VEC4","count":16,"bufferView":4,"byteOffset":0},{"componentType":5126,"type":"VEC4","count":16,"bufferView":5,"byteOffset":0},{"componentType":5126,"type":"VEC4","count":16,"bufferView":6,"byteOffset":0},{"componentType":5126,"type":"VEC4","count":16,"bufferView":7,"byteOffset":0},{"componentType":5126,"type":"SCALAR","count":73,"bufferView":8,"byteOffset":0,"min":[0],"max":[3]},{"componentType":5126,"type":"VEC4","count":73,"bufferView":9,"byteOffset":0},{"componentType":5126,"type":"VEC4","count":73,"bufferView":10,"byteOffset":0},{"componentType":5126,"type":"VEC4","count":73,"bufferView":11,"byteOffset":0},{"componentType":5126,"type":"VEC4","count":73,"bufferView":12,"byteOffset":0},{"componentType":5126,"type":"VEC4","count":73,"bufferView":13,"byteOffset":0},{"componentType":5126,"type":"VEC4","count":73,"bufferView":14,"byteOffset":0},{"componentType":5126,"type":"SCALAR","count":37,"bufferView":15,"byteOffset":0,"min":[0],"max":[1.5]},{"componentType":5126,"type":"VEC3","count":37,"bufferView":16,"byteOffset":0},{"componentType":5126,"type":"VEC4","count":37,"bufferView":17,"byteOffset":0},{"componentType":5126,"type":"VEC4","count":37,"bufferView":18,"byteOffset":0},{"componentType":5126,"type":"VEC4","count":37,"bufferView":19,"byteOffset":0},{"componentType":5126,"type":"VEC4","count":37,"bufferView":20,"byteOffset":0},{"componentType":5126,"type":"VEC4","count":37,"bufferView":21,"byteOffset":0},{"componentType":5126,"type":"VEC4","count":37,"bufferView":22,"byteOffset":0},{"componentType":5126,"type":"SCALAR","count":26,"bufferView":23,"byteOffset":0,"min":[0],"max":[1.04166662693024]},{"componentType":5126,"type":"VEC4","count":26,"bufferView":24,"byteOffset":0},{"componentType":5126,"type":"VEC4","count":26,"bufferView":25,"byteOffset":0},{"componentType":5126,"type":"VEC4","count":26,"bufferView":26,"byteOffset":0},{"componentType":5126,"type":"VEC4","count":26,"bufferView":27,"byteOffset":0},{"componentType":5126,"type":"VEC4","count":26,"bufferView":28,"byteOffset":0},{"componentType":5126,"type":"VEC4","count":26,"bufferView":29,"byteOffset":0},{"componentType":5126,"type":"SCALAR","count":29,"bufferView":30,"byteOffset":0,"min":[0],"max":[1.16666662693024]},{"componentType":5126,"type":"VEC4","count":29,"bufferView":31,"byteOffset":0},{"componentType":5126,"type":"VEC4","count":29,"bufferView":32,"byteOffset":0},{"componentType":5126,"type":"VEC4","count":29,"bufferView":33,"byteOffset":0},{"componentType":5126,"type":"VEC4","count":29,"bufferView":34,"byteOffset":0},{"componentType":5126,"type":"VEC4","count":29,"bufferView":35,"byteOffset":0},{"componentType":5126,"type":"VEC4","count":29,"bufferView":36,"byteOffset":0},{"componentType":5126,"type":"SCALAR","count":56,"bufferView":37,"byteOffset":0,"min":[0],"max":[2.29166674613953]},{"componentType":5126,"type":"VEC4","count":56,"bufferView":38,"byteOffset":0},{"componentType":5126,"type":"VEC4","count":56,"bufferView":39,"byteOffset":0},{"componentType":5126,"type":"VEC4","count":56,"bufferView":40,"byteOffset":0},{"componentType":5126,"type":"VEC4","count":56,"bufferView":41,"byteOffset":0},{"componentType":5126,"type":"VEC4","count":56,"bufferView":42,"byteOffset":0},{"componentType":5126,"type":"VEC4","count":56,"bufferView":43,"byteOffset":0},{"componentType":5123,"type":"SCALAR","count":1032,"bufferView":44,"byteOffset":0},{"componentType":5126,"type":"VEC3","count":688,"bufferView":45,"byteOffset":0,"min":[-0.0117137255147099,-0.0121909221634269,-0.00554740428924561],"max":[0.0118228644132614,0.0139509625732899,0.00680288532748818]},{"componentType":5126,"type":"VEC3","count":688,"bufferView":46,"byteOffset":0},{"componentType":5123,"type":"VEC4","count":688,"bufferView":47,"byteOffset":0},{"componentType":5126,"type":"VEC4","count":688,"bufferView":48,"byteOffset":0},{"componentType":5123,"type":"SCALAR","count":438,"bufferView":49,"byteOffset":0},{"componentType":5126,"type":"VEC3","count":302,"bufferView":50,"byteOffset":0,"min":[-0.0126845762133598,-0.0101055735722184,-0.0135639421641827],"max":[0.0126845762133598,0.0139560792595148,0.0151805253699422]},{"componentType":5126,"type":"VEC3","count":302,"bufferView":51,"byteOffset":0},{"componentType":5123,"type":"VEC4","count":302,"bufferView":52,"byteOffset":0},{"componentType":5126,"type":"VEC4","count":302,"bufferView":53,"byteOffset":0},{"componentType":5123,"type":"SCALAR","count":1212,"bufferView":54,"byteOffset":0},{"componentType":5126,"type":"VEC3","count":798,"bufferView":55,"byteOffset":0,"min":[-0.0168867092579603,-0.0219169501215219,-0.0132325161248446],"max":[0.0168867092579603,0.0260781832039356,0.0146279660984874]},{"componentType":5126,"type":"VEC3","count":798,"bufferView":56,"byteOffset":0},{"componentType":5123,"type":"VEC4","count":798,"bufferView":57,"byteOffset":0},{"componentType":5126,"type":"VEC4","count":798,"bufferView":58,"byteOffset":0},{"componentType":5123,"type":"SCALAR","count":1440,"bufferView":59,"byteOffset":0},{"componentType":5126,"type":"VEC3","count":262,"bufferView":60,"byteOffset":0,"min":[-0.0129180401563644,-0.012495119124651,-0.00226117647252977],"max":[0.0128961252048612,-0.00479948613792658,0.00617142673581839]},{"componentType":5126,"type":"VEC3","count":262,"bufferView":61,"byteOffset":0},{"componentType":5123,"type":"VEC4","count":262,"bufferView":62,"byteOffset":0},{"componentType":5126,"type":"VEC4","count":262,"bufferView":63,"byteOffset":0},{"componentType":5126,"type":"MAT4","count":6,"bufferView":64,"byteOffset":0}],"samplers":[{}],"materials":[{"name":"Butterfly_Dark","alphaMode":"OPAQUE","extras":{"fromFBX":{"shadingModel":"Phong","isTruePBR":false}},"pbrMetallicRoughness":{"baseColorFactor":[0.0252404268831015,0.0252404268831015,0.0252404268831015,1],"metallicFactor":0.400000005960464,"roughnessFactor":0.415087103843689}},{"name":"Butterfly_Light","alphaMode":"OPAQUE","extras":{"fromFBX":{"shadingModel":"Phong","isTruePBR":false}},"pbrMetallicRoughness":{"baseColorFactor":[0.492135137319565,0.323083609342575,0.0786810740828514,1],"metallicFactor":0.400000005960464,"roughnessFactor":0.415087103843689}},{"name":"Butterfly_Main","alphaMode":"OPAQUE","extras":{"fromFBX":{"shadingModel":"Phong","isTruePBR":false}},"pbrMetallicRoughness":{"baseColorFactor":[0.246000334620476,0.236493468284607,0.209274172782898,1],"metallicFactor":0.400000005960464,"roughnessFactor":0.415087103843689}},{"name":"Eyes","alphaMode":"OPAQUE","extras":{"fromFBX":{"shadingModel":"Phong","isTruePBR":false}},"pbrMetallicRoughness":{"baseColorFactor":[0.00797184184193611,0.00797184184193611,0.00797184184193611,1],"metallicFactor":0.400000005960464,"roughnessFactor":0.415087103843689}}],"meshes":[{"name":"Butterflyfish","primitives":[{"material":0,"mode":4,"attributes":{"JOINTS_0":47,"NORMAL":46,"POSITION":45,"WEIGHTS_0":48},"indices":44},{"material":1,"mode":4,"attributes":{"JOINTS_0":52,"NORMAL":51,"POSITION":50,"WEIGHTS_0":53},"indices":49},{"material":2,"mode":4,"attributes":{"JOINTS_0":57,"NORMAL":56,"POSITION":55,"WEIGHTS_0":58},"indices":54},{"material":3,"mode":4,"attributes":{"JOINTS_0":62,"NORMAL":61,"POSITION":60,"WEIGHTS_0":63},"indices":59}]}],"skins":[{"joints":[2,3,4,5,6,7],"inverseBindMatrices":64,"skeleton":2}],"animations":[{"name":"Fish_Armature|Attack","channels":[{"sampler":0,"target":{"node":2,"path":"translation"}},{"sampler":1,"target":{"node":2,"path":"rotation"}},{"sampler":2,"target":{"node":3,"path":"rotation"}},{"sampler":3,"target":{"node":4,"path":"rotation"}},{"sampler":4,"target":{"node":5,"path":"rotation"}},{"sampler":5,"target":{"node":6,"path":"rotation"}},{"sampler":6,"target":{"node":7,"path":"rotation"}}],"samplers":[{"input":0,"interpolation":"LINEAR","output":1},{"input":0,"interpolation":"LINEAR","output":2},{"input":0,"interpolation":"LINEAR","output":3},{"input":0,"interpolation":"LINEAR","output":4},{"input":0,"interpolation":"LINEAR","output":5},{"input":0,"interpolation":"LINEAR","output":6},{"input":0,"interpolation":"LINEAR","output":7}]},{"name":"Fish_Armature|Death","channels":[{"sampler":0,"target":{"node":2,"path":"rotation"}},{"sampler":1,"target":{"node":3,"path":"rotation"}},{"sampler":2,"target":{"node":4,"path":"rotation"}},{"sampler":3,"target":{"node":5,"path":"rotation"}},{"sampler":4,"target":{"node":6,"path":"rotation"}},{"sampler":5,"target":{"node":7,"path":"rotation"}}],"samplers":[{"input":8,"interpolation":"LINEAR","output":9},{"input":8,"interpolation":"LINEAR","output":10},{"input":8,"interpolation":"LINEAR","output":11},{"input":8,"interpolation":"LINEAR","output":12},{"input":8,"interpolation":"LINEAR","output":13},{"input":8,"interpolation":"LINEAR","output":14}]},{"name":"Fish_Armature|Out_Of_Water","channels":[{"sampler":0,"target":{"node":2,"path":"translation"}},{"sampler":1,"target":{"node":2,"path":"rotation"}},{"sampler":2,"target":{"node":3,"path":"rotation"}},{"sampler":3,"target":{"node":4,"path":"rotation"}},{"sampler":4,"target":{"node":5,"path":"rotation"}},{"sampler":5,"target":{"node":6,"path":"rotation"}},{"sampler":6,"target":{"node":7,"path":"rotation"}}],"samplers":[{"input":15,"interpolation":"LINEAR","output":16},{"input":15,"interpolation":"LINEAR","output":17},{"input":15,"interpolation":"LINEAR","output":18},{"input":15,"interpolation":"LINEAR","output":19},{"input":15,"interpolation":"LINEAR","output":20},{"input":15,"interpolation":"LINEAR","output":21},{"input":15,"interpolation":"LINEAR","output":22}]},{"name":"Fish_Armature|Swimming_Fast","channels":[{"sampler":0,"target":{"node":2,"path":"rotation"}},{"sampler":1,"target":{"node":3,"path":"rotation"}},{"sampler":2,"target":{"node":4,"path":"rotation"}},{"sampler":3,"target":{"node":5,"path":"rotation"}},{"sampler":4,"target":{"node":6,"path":"rotation"}},{"sampler":5,"target":{"node":7,"path":"rotation"}}],"samplers":[{"input":23,"interpolation":"LINEAR","output":24},{"input":23,"interpolation":"LINEAR","output":25},{"input":23,"interpolation":"LINEAR","output":26},{"input":23,"interpolation":"LINEAR","output":27},{"input":23,"interpolation":"LINEAR","output":28},{"input":23,"interpolation":"LINEAR","output":29}]},{"name":"Fish_Armature|Swimming_Impulse","channels":[{"sampler":0,"target":{"node":2,"path":"rotation"}},{"sampler":1,"target":{"node":3,"path":"rotation"}},{"sampler":2,"target":{"node":4,"path":"rotation"}},{"sampler":3,"target":{"node":5,"path":"rotation"}},{"sampler":4,"target":{"node":6,"path":"rotation"}},{"sampler":5,"target":{"node":7,"path":"rotation"}}],"samplers":[{"input":30,"interpolation":"LINEAR","output":31},{"input":30,"interpolation":"LINEAR","output":32},{"input":30,"interpolation":"LINEAR","output":33},{"input":30,"interpolation":"LINEAR","output":34},{"input":30,"interpolation":"LINEAR","output":35},{"input":30,"interpolation":"LINEAR","output":36}]},{"name":"Fish_Armature|Swimming_Normal","channels":[{"sampler":0,"target":{"node":2,"path":"rotation"}},{"sampler":1,"target":{"node":3,"path":"rotation"}},{"sampler":2,"target":{"node":4,"path":"rotation"}},{"sampler":3,"target":{"node":5,"path":"rotation"}},{"sampler":4,"target":{"node":6,"path":"rotation"}},{"sampler":5,"target":{"node":7,"path":"rotation"}}],"samplers":[{"input":37,"interpolation":"LINEAR","output":38},{"input":37,"interpolation":"LINEAR","output":39},{"input":37,"interpolation":"LINEAR","output":40},{"input":37,"interpolation":"LINEAR","output":41},{"input":37,"interpolation":"LINEAR","output":42},{"input":37,"interpolation":"LINEAR","output":43}]}],"nodes":[{"name":"RootNode","translation":[0,0,0],"rotation":[0,0,0,1],"scale":[1,1,1],"children":[1,9]},{"name":"Fish_Armature","translation":[0,0,0],"rotation":[-0.707106828689575,0,0,0.707106709480286],"scale":[100,100,100],"children":[2]},{"name":"Main1","translation":[-2.22044620641463e-18,-0.0166770722717047,-2.98023217215615e-10],"rotation":[-0.00000315184797727852,-0.00000315184797727852,-0.0247233770787716,0.999694347381592],"scale":[1,1,1],"children":[3]},{"name":"Main2","translation":[-5.32592145299077e-13,0.0133709833025932,5.68434175902586e-16],"rotation":[-0.00861211214214563,0.0739253535866737,-0.0276275537908077,0.996843814849854],"scale":[0.999999940395355,1,1],"children":[4]},{"name":"Main3","translation":[-7.21775000878111e-11,0.0067935804836452,-3.49245944664123e-11],"rotation":[-0.0000031202487207338,-0.00000312439783556329,-0.0308220442384481,0.999524891376495],"scale":[1,1,1.00000011920929],"children":[5]},{"name":"Main4","translation":[1.3969838306982e-11,0.00500783417373896,4.65661276899398e-12],"rotation":[-0.0110180443152785,0.000903099833521992,-0.0748987272381783,0.997129857540131],"scale":[0.999999940395355,1,0.999999940395355],"children":[6]},{"name":"Main5","translation":[2.14204182169553e-10,0.00481488090008497,3.46944687440543e-20],"rotation":[0.0110307009890676,0.000637626275420189,-0.0577032752335072,0.998272657394409],"scale":[0.99999988079071,0.999999761581421,0.99999988079071],"children":[7]},{"name":"Main6","translation":[2.23517412911711e-10,0.00433203484863043,1.32713465217371e-10],"rotation":[1.53673536118504e-8,1.26897088392752e-8,0.00831496994942427,0.99996542930603],"scale":[1,1,1],"children":[8]},{"name":"Main6_end","translation":[1.11022299980974e-18,0.00500376941636205,0],"rotation":[8.67361737988404e-19,-1.0842021724855e-17,9.4039548065783e-36,1],"scale":[1,1,1]},{"name":"Butterflyfish","translation":[0,0,0],"rotation":[-0.707106828689575,0,0,0.707106709480286],"scale":[100,100,100],"mesh":0,"skin":0}]}