{"asset":{"generator":"FBX2glTF v0.9.7","version":"2.0"},"scene":0,"buffers":[{"byteLength":145692,"uri":"data:application/octet-stream;base64,"}],"bufferViews":[{"buffer":0,"byteLength":64,"byteOffset":0},{"buffer":0,"byteLength":192,"byteOffset":64},{"buffer":0,"byteLength":256,"byteOffset":256},{"buffer":0,"byteLength":256,"byteOffset":512},{"buffer":0,"byteLength":256,"byteOffset":768},{"buffer":0,"byteLength":256,"byteOffset":1024},{"buffer":0,"byteLength":256,"byteOffset":1280},{"buffer":0,"byteLength":256,"byteOffset":1536},{"buffer":0,"byteLength":292,"byteOffset":1792},{"buffer":0,"byteLength":1168,"byteOffset":2084},{"buffer":0,"byteLength":1168,"byteOffset":3252},{"buffer":0,"byteLength":1168,"byteOffset":4420},{"buffer":0,"byteLength":1168,"byteOffset":5588},{"buffer":0,"byteLength":1168,"byteOffset":6756},{"buffer":0,"byteLength":1168,"byteOffset":7924},{"buffer":0,"byteLength":148,"byteOffset":9092},{"buffer":0,"byteLength":444,"byteOffset":9240},{"buffer":0,"byteLength":592,"byteOffset":9684},{"buffer":0,"byteLength":592,"byteOffset":10276},{"buffer":0,"byteLength":592,"byteOffset":10868},{"buffer":0,"byteLength":592,"byteOffset":11460},{"buffer":0,"byteLength":592,"byteOffset":12052},{"buffer":0,"byteLength":592,"byteOffset":12644},{"buffer":0,"byteLength":104,"byteOffset":13236},{"buffer":0,"byteLength":416,"byteOffset":13340},{"buffer":0,"byteLength":416,"byteOffset":13756},{"buffer":0,"byteLength":416,"byteOffset":14172},{"buffer":0,"byteLength":416,"byteOffset":14588},{"buffer":0,"byteLength":416,"byteOffset":15004},{"buffer":0,"byteLength":416,"byteOffset":15420},{"buffer":0,"byteLength":116,"byteOffset":15836},{"buffer":0,"byteLength":464,"byteOffset":15952},{"buffer":0,"byteLength":464,"byteOffset":16416},{"buffer":0,"byteLength":464,"byteOffset":16880},{"buffer":0,"byteLength":464,"byteOffset":17344},{"buffer":0,"byteLength":464,"byteOffset":17808},{"buffer":0,"byteLength":464,"byteOffset":18272},{"buffer":0,"byteLength":224,"byteOffset":18736},{"buffer":0,"byteLength":896,"byteOffset":18960},{"buffer":0,"byteLength":896,"byteOffset":19856},{"buffer":0,"byteLength":896,"byteOffset":20752},{"buffer":0,"byteLength":896,"byteOffset":21648},{"buffer":0,"byteLength":896,"byteOffset":22544},{"buffer":0,"byteLength":896,"byteOffset":23440},{"buffer":0,"byteLength":2712,"byteOffset":24336,"target":34963},{"buffer":0,"byteLength":10644,"byteOffset":27048,"target":34962},{"buffer":0,"byteLength":10644,"byteOffset":37692,"target":34962},{"buffer":0,"byteLength":7096,"byteOffset":48336,"target":34962},{"buffer":0,"byteLength":14192,"byteOffset":55432,"target":34962},{"buffer":0,"byteLength":2868,"byteOffset":69624,"target":34963},{"buffer":0,"byteLength":11376,"byteOffset":72492,"target":34962},{"buffer":0,"byteLength":11376,"byteOffset":83868,"target":34962},{"buffer":0,"byteLength":7584,"byteOffset":95244,"target":34962},{"buffer":0,"byteLength":15168,"byteOffset":102828,"target":34962},{"buffer":0,"byteLength":2880,"byteOffset":117996,"target":34963},{"buffer":0,"byteLength":3144,"byteOffset":120876,"target":34962},{"buffer":0,"byteLength":3144,"byteOffset":124020,"target":34962},{"buffer":0,"byteLength":2096,"byteOffset":127164,"target":34962},{"buffer":0,"byteLength":4192,"byteOffset":129260,"target":34962},{"buffer":0,"byteLength":720,"byteOffset":133452,"target":34963},{"buffer":0,"byteLength":2784,"byteOffset":134172,"target":34962},{"buffer":0,"byteLength":2784,"byteOffset":136956,"target":34962},{"buffer":0,"byteLength":1856,"byteOffset":139740,"target":34962},{"buffer":0,"byteLength":3712,"byteOffset":141596,"target":34962},{"buffer":0,"byteLength":384,"byteOffset":145308}],"scenes":[{"name":"Root Scene","nodes":[0]}],"accessors":[{"componentType":5126,"type":"SCALAR","count":16,"bufferView":0,"byteOffset":0,"min":[0],"max":[0.625]},{"componentType":5126,"type":"VEC3","count":16,"bufferView":1,"byteOffset":0},{"componentType":5126,"type":"VEC4","count":16,"bufferView":2,"byteOffset":0},{"componentType":5126,"type":"VEC4","count":16,"bufferView":3,"byteOffset":0},{"componentType":5126,"type":"VEC4","count":16,"bufferView":4,"byteOffset":0},{"componentType":5126,"type":"VEC4","count":16,"bufferView":5,"byteOffset":0},{"componentType":5126,"type":"VEC4","count":16,"bufferView":6,"byteOffset":0},{"componentType":5126,"type":"VEC4","count":16,"bufferView":7,"byteOffset":0},{"componentType":5126,"type":"SCALAR","count":73,"bufferView":8,"byteOffset":0,"min":[0],"max":[3]},{"componentType":5126,"type":"VEC4","count":73,"bufferView":9,"byteOffset":0},{"componentType":5126,"type":"VEC4","count":73,"bufferView":10,"byteOffset":0},{"componentType":5126,"type":"VEC4","count":73,"bufferView":11,"byteOffset":0},{"componentType":5126,"type":"VEC4","count":73,"bufferView":12,"byteOffset":0},{"componentType":5126,"type":"VEC4","count":73,"bufferView":13,"byteOffset":0},{"componentType":5126,"type":"VEC4","count":73,"bufferView":14,"byteOffset":0},{"componentType":5126,"type":"SCALAR","count":37,"bufferView":15,"byteOffset":0,"min":[0],"max":[1.5]},{"componentType":5126,"type":"VEC3","count":37,"bufferView":16,"byteOffset":0},{"componentType":5126,"type":"VEC4","count":37,"bufferView":17,"byteOffset":0},{"componentType":5126,"type":"VEC4","count":37,"bufferView":18,"byteOffset":0},{"componentType":5126,"type":"VEC4","count":37,"bufferView":19,"byteOffset":0},{"componentType":5126,"type":"VEC4","count":37,"bufferView":20,"byteOffset":0},{"componentType":5126,"type":"VEC4","count":37,"bufferView":21,"byteOffset":0},{"componentType":5126,"type":"VEC4","count":37,"bufferView":22,"byteOffset":0},{"componentType":5126,"type":"SCALAR","count":26,"bufferView":23,"byteOffset":0,"min":[0],"max":[1.04166662693024]},{"componentType":5126,"type":"VEC4","count":26,"bufferView":24,"byteOffset":0},{"componentType":5126,"type":"VEC4","count":26,"bufferView":25,"byteOffset":0},{"componentType":5126,"type":"VEC4","count":26,"bufferView":26,"byteOffset":0},{"componentType":5126,"type":"VEC4","count":26,"bufferView":27,"byteOffset":0},{"componentType":5126,"type":"VEC4","count":26,"bufferView":28,"byteOffset":0},{"componentType":5126,"type":"VEC4","count":26,"bufferView":29,"byteOffset":0},{"componentType":5126,"type":"SCALAR","count":29,"bufferView":30,"byteOffset":0,"min":[0],"max":[1.16666662693024]},{"componentType":5126,"type":"VEC4","count":29,"bufferView":31,"byteOffset":0},{"componentType":5126,"type":"VEC4","count":29,"bufferView":32,"byteOffset":0},{"componentType":5126,"type":"VEC4","count":29,"bufferView":33,"byteOffset":0},{"componentType":5126,"type":"VEC4","count":29,"bufferView":34,"byteOffset":0},{"componentType":5126,"type":"VEC4","count":29,"bufferView":35,"byteOffset":0},{"componentType":5126,"type":"VEC4","count":29,"bufferView":36,"byteOffset":0},{"componentType":5126,"type":"SCALAR","count":56,"bufferView":37,"byteOffset":0,"min":[0],"max":[2.29166674613953]},{"componentType":5126,"type":"VEC4","count":56,"bufferView":38,"byteOffset":0},{"componentType":5126,"type":"VEC4","count":56,"bufferView":39,"byteOffset":0},{"componentType":5126,"type":"VEC4","count":56,"bufferView":40,"byteOffset":0},{"componentType":5126,"type":"VEC4","count":56,"bufferView":41,"byteOffset":0},{"componentType":5126,"type":"VEC4","count":56,"bufferView":42,"byteOffset":0},{"componentType":5126,"type":"VEC4","count":56,"bufferView":43,"byteOffset":0},{"componentType":5123,"type":"SCALAR","count":1356,"bufferView":44,"byteOffset":0},{"componentType":5126,"type":"VEC3","count":887,"bufferView":45,"byteOffset":0,"min":[-0.0220136977732182,-0.0181702673435211,-0.0104285161942244],"max":[0.0201939083635807,0.0287329144775867,0.0160485785454512]},{"componentType":5126,"type":"VEC3","count":887,"bufferView":46,"byteOffset":0},{"componentType":5123,"type":"VEC4","count":887,"bufferView":47,"byteOffset":0},{"componentType":5126,"type":"VEC4","count":887,"bufferView":48,"byteOffset":0},{"componentType":5123,"type":"SCALAR","count":1434,"bufferView":49,"byteOffset":0},{"componentType":5126,"type":"VEC3","count":948,"bufferView":50,"byteOffset":0,"min":[-0.0121756689622998,-0.0144371790811419,-0.0122467400506139],"max":[0.0221018884330988,0.0345684848725796,0.018187465146184]},{"componentType":5126,"type":"VEC3","count":948,"bufferView":51,"byteOffset":0},{"componentType":5123,"type":"VEC4","count":948,"bufferView":52,"byteOffset":0},{"componentType":5126,"type":"VEC4","count":948,"bufferView":53,"byteOffset":0},{"componentType":5123,"type":"SCALAR","count":1440,"bufferView":54,"byteOffset":0},{"componentType":5126,"type":"VEC3","count":262,"bufferView":55,"byteOffset":0,"min":[-0.0121593521907926,-0.0153804738074541,-0.00159511517267674],"max":[0.0121593521907926,-0.00849767681211233,0.00696692336350679]},{"componentType":5126,"type":"VEC3","count":262,"bufferView":56,"byteOffset":0},{"componentType":5123,"type":"VEC4","count":262,"bufferView":57,"byteOffset":0},{"componentType":5126,"type":"VEC4","count":262,"bufferView":58,"byteOffset":0},{"componentType":5123,"type":"SCALAR","count":360,"bufferView":59,"byteOffset":0},{"componentType":5126,"type":"VEC3","count":232,"bufferView":60,"byteOffset":0,"min":[-0.0126845762133598,-0.00290975510142744,-0.0111667877063155],"max":[0.0126845762133598,0.0187535379081964,0.0123112006112933]},{"componentType":5126,"type":"VEC3","count":232,"bufferView":61,"byteOffset":0},{"componentType":5123,"type":"VEC4","count":232,"bufferView":62,"byteOffset":0},{"componentType":5126,"type":"VEC4","count":232,"bufferView":63,"byteOffset":0},{"componentType":5126,"type":"MAT4","count":6,"bufferView":64,"byteOffset":0}],"samplers":[{}],"materials":[{"name":"Clownfish_Main","alphaMode":"OPAQUE","extras":{"fromFBX":{"shadingModel":"Phong","isTruePBR":false}},"pbrMetallicRoughness":{"baseColorFactor":[0.196517333388329,0.0536329410970211,0.0199331361800432,1],"metallicFactor":0.400000005960464,"roughnessFactor":0.415087103843689}},{"name":"Clownfish_Dark","alphaMode":"OPAQUE","extras":{"fromFBX":{"shadingModel":"Phong","isTruePBR":false}},"pbrMetallicRoughness":{"baseColorFactor":[0.0325465053319931,0.0325465053319931,0.0325465053319931,1],"metallicFactor":0.400000005960464,"roughnessFactor":0.415087103843689}},{"name":"Eyes","alphaMode":"OPAQUE","extras":{"fromFBX":{"shadingModel":"Phong","isTruePBR":false}},"pbrMetallicRoughness":{"baseColorFactor":[0.00797184184193611,0.00797184184193611,0.00797184184193611,1],"metallicFactor":0.400000005960464,"roughnessFactor":0.415087103843689}},{"name":"Clownfish_Light","alphaMode":"OPAQUE","extras":{"fromFBX":{"shadingModel":"Phong","isTruePBR":false}},"pbrMetallicRoughness":{"baseColorFactor":[0.22044925391674,0.22044925391674,0.22044925391674,1],"metallicFactor":0.400000005960464,"roughnessFactor":0.415087103843689}}],"meshes":[{"name":"Clownfish","primitives":[{"material":0,"mode":4,"attributes":{"JOINTS_0":47,"NORMAL":46,"POSITION":45,"WEIGHTS_0":48},"indices":44},{"material":1,"mode":4,"attributes":{"JOINTS_0":52,"NORMAL":51,"POSITION":50,"WEIGHTS_0":53},"indices":49},{"material":2,"mode":4,"attributes":{"JOINTS_0":57,"NORMAL":56,"POSITION":55,"WEIGHTS_0":58},"indices":54},{"material":3,"mode":4,"attributes":{"JOINTS_0":62,"NORMAL":61,"POSITION":60,"WEIGHTS_0":63},"indices":59}]}],"skins":[{"joints":[2,3,4,5,6,7],"inverseBindMatrices":64,"skeleton":2}],"animations":[{"name":"Fish_Armature|Attack","channels":[{"sampler":0,"target":{"node":2,"path":"translation"}},{"sampler":1,"target":{"node":2,"path":"rotation"}},{"sampler":2,"target":{"node":3,"path":"rotation"}},{"sampler":3,"target":{"node":4,"path":"rotation"}},{"sampler":4,"target":{"node":5,"path":"rotation"}},{"sampler":5,"target":{"node":6,"path":"rotation"}},{"sampler":6,"target":{"node":7,"path":"rotation"}}],"samplers":[{"input":0,"interpolation":"LINEAR","output":1},{"input":0,"interpolation":"LINEAR","output":2},{"input":0,"interpolation":"LINEAR","output":3},{"input":0,"interpolation":"LINEAR","output":4},{"input":0,"interpolation":"LINEAR","output":5},{"input":0,"interpolation":"LINEAR","output":6},{"input":0,"interpolation":"LINEAR","output":7}]},{"name":"Fish_Armature|Death","channels":[{"sampler":0,"target":{"node":2,"path":"rotation"}},{"sampler":1,"target":{"node":3,"path":"rotation"}},{"sampler":2,"target":{"node":4,"path":"rotation"}},{"sampler":3,"target":{"node":5,"path":"rotation"}},{"sampler":4,"target":{"node":6,"path":"rotation"}},{"sampler":5,"target":{"node":7,"path":"rotation"}}],"samplers":[{"input":8,"interpolation":"LINEAR","output":9},{"input":8,"interpolation":"LINEAR","output":10},{"input":8,"interpolation":"LINEAR","output":11},{"input":8,"interpolation":"LINEAR","output":12},{"input":8,"interpolation":"LINEAR","output":13},{"input":8,"interpolation":"LINEAR","output":14}]},{"name":"Fish_Armature|Out_Of_Water","channels":[{"sampler":0,"target":{"node":2,"path":"translation"}},{"sampler":1,"target":{"node":2,"path":"rotation"}},{"sampler":2,"target":{"node":3,"path":"rotation"}},{"sampler":3,"target":{"node":4,"path":"rotation"}},{"sampler":4,"target":{"node":5,"path":"rotation"}},{"sampler":5,"target":{"node":6,"path":"rotation"}},{"sampler":6,"target":{"node":7,"path":"rotation"}}],"samplers":[{"input":15,"interpolation":"LINEAR","output":16},{"input":15,"interpolation":"LINEAR","output":17},{"input":15,"interpolation":"LINEAR","output":18},{"input":15,"interpolation":"LINEAR","output":19},{"input":15,"interpolation":"LINEAR","output":20},{"input":15,"interpolation":"LINEAR","output":21},{"input":15,"interpolation":"LINEAR","output":22}]},{"name":"Fish_Armature|Swimming_Fast","channels":[{"sampler":0,"target":{"node":2,"path":"rotation"}},{"sampler":1,"target":{"node":3,"path":"rotation"}},{"sampler":2,"target":{"node":4,"path":"rotation"}},{"sampler":3,"target":{"node":5,"path":"rotation"}},{"sampler":4,"target":{"node":6,"path":"rotation"}},{"sampler":5,"target":{"node":7,"path":"rotation"}}],"samplers":[{"input":23,"interpolation":"LINEAR","output":24},{"input":23,"interpolation":"LINEAR","output":25},{"input":23,"interpolation":"LINEAR","output":26},{"input":23,"interpolation":"LINEAR","output":27},{"input":23,"interpolation":"LINEAR","output":28},{"input":23,"interpolation":"LINEAR","output":29}]},{"name":"Fish_Armature|Swimming_Impulse","channels":[{"sampler":0,"target":{"node":2,"path":"rotation"}},{"sampler":1,"target":{"node":3,"path":"rotation"}},{"sampler":2,"target":{"node":4,"path":"rotation"}},{"sampler":3,"target":{"node":5,"path":"rotation"}},{"sampler":4,"target":{"node":6,"path":"rotation"}},{"sampler":5,"target":{"node":7,"path":"rotation"}}],"samplers":[{"input":30,"interpolation":"LINEAR","output":31},{"input":30,"interpolation":"LINEAR","output":32},{"input":30,"interpolation":"LINEAR","output":33},{"input":30,"interpolation":"LINEAR","output":34},{"input":30,"interpolation":"LINEAR","output":35},{"input":30,"interpolation":"LINEAR","output":36}]},{"name":"Fish_Armature|Swimming_Normal","channels":[{"sampler":0,"target":{"node":2,"path":"rotation"}},{"sampler":1,"target":{"node":3,"path":"rotation"}},{"sampler":2,"target":{"node":4,"path":"rotation"}},{"sampler":3,"target":{"node":5,"path":"rotation"}},{"sampler":4,"target":{"node":6,"path":"rotation"}},{"sampler":5,"target":{"node":7,"path":"rotation"}}],"samplers":[{"input":37,"interpolation":"LINEAR","output":38},{"input":37,"interpolation":"LINEAR","output":39},{"input":37,"interpolation":"LINEAR","output":40},{"input":37,"interpolation":"LINEAR","output":41},{"input":37,"interpolation":"LINEAR","output":42},{"input":37,"interpolation":"LINEAR","output":43}]}],"nodes":[{"name":"RootNode","translation":[0,0,0],"rotation":[0,0,0,1],"scale":[1,1,1],"children":[1,9]},{"name":"Fish_Armature","translation":[0,0,0],"rotation":[-0.707106828689575,0,0,0.707106709480286],"scale":[100,100,100],"children":[2]},{"name":"Main1","translation":[-2.22044620641463e-18,-0.0166770722717047,-2.98023217215615e-10],"rotation":[-0.00000315229453917709,-0.00000315229453917709,-0.0181080866605043,0.999836027622223],"scale":[0.99999988079071,0.99999988079071,1],"children":[3]},{"name":"Main2","translation":[-2.84818401502518e-11,0.0136009138077497,5.68434154726762e-15],"rotation":[-0.00834324397146702,0.071617417037487,-0.0242864806205034,0.997101545333862],"scale":[1,1,1],"children":[4]},{"name":"Main3","translation":[1.14087010671948e-10,0.00939620286226273,4.65661276899398e-12],"rotation":[-0.00000312053589368588,-0.00000312485963149811,-0.0313759073615074,0.999507665634155],"scale":[1,0.99999988079071,1],"children":[5]},{"name":"Main4","translation":[3.49245965480804e-10,0.00692633772268891,2.32830629776082e-11],"rotation":[-0.00795543286949396,0.00111395958811045,-0.0920150056481361,0.995725214481354],"scale":[1,1,0.99999988079071],"children":[6]},{"name":"Main5","translation":[-7.63684504523354e-10,0.00665868911892176,-7.45058043039037e-11],"rotation":[0.00796212814748287,0.000659077137243003,-0.0824896767735481,0.996559917926788],"scale":[1,1,1],"children":[7]},{"name":"Main6","translation":[-7.45058015283462e-10,0.00599163537845016,-1.49011608607807e-10],"rotation":[1.35086022368114e-8,1.19364802486643e-8,-0.0255935844033957,0.999672412872314],"scale":[1,0.999999940395355,1.00000011920929],"children":[8]},{"name":"Main6_end","translation":[-2.22044599961948e-18,0.00692071672528982,-6.93889374881086e-20],"rotation":[-6.07153216591882e-18,1.77809156287623e-17,2.77555756156289e-17,1],"scale":[1,1,1]},{"name":"Clownfish","translation":[0,0,0],"rotation":[-0.707106828689575,0,0,0.707106709480286],"scale":[100,100,100],"mesh":0,"skin":0}]}