{"asset":{"generator":"FBX2glTF v0.9.7","version":"2.0"},"scene":0,"buffers":[{"byteLength":60704,"uri":"data:application/octet-stream;base64,"}],"bufferViews":[{"buffer":0,"byteLength":128,"byteOffset":0},{"buffer":0,"byteLength":512,"byteOffset":128},{"buffer":0,"byteLength":512,"byteOffset":640},{"buffer":0,"byteLength":512,"byteOffset":1152},{"buffer":0,"byteLength":512,"byteOffset":1664},{"buffer":0,"byteLength":512,"byteOffset":2176},{"buffer":0,"byteLength":1128,"byteOffset":2688,"target":34963},{"buffer":0,"byteLength":4752,"byteOffset":3816,"target":34962},{"buffer":0,"byteLength":4752,"byteOffset":8568,"target":34962},{"buffer":0,"byteLength":3168,"byteOffset":13320,"target":34962},{"buffer":0,"byteLength":6336,"byteOffset":16488,"target":34962},{"buffer":0,"byteLength":564,"byteOffset":22824,"target":34963},{"buffer":0,"byteLength":2304,"byteOffset":23388,"target":34962},{"buffer":0,"byteLength":2304,"byteOffset":25692,"target":34962},{"buffer":0,"byteLength":1536,"byteOffset":27996,"target":34962},{"buffer":0,"byteLength":3072,"byteOffset":29532,"target":34962},{"buffer":0,"byteLength":1572,"byteOffset":32604,"target":34963},{"buffer":0,"byteLength":6504,"byteOffset":34176,"target":34962},{"buffer":0,"byteLength":6504,"byteOffset":40680,"target":34962},{"buffer":0,"byteLength":4336,"byteOffset":47184,"target":34962},{"buffer":0,"byteLength":8672,"byteOffset":51520,"target":34962},{"buffer":0,"byteLength":512,"byteOffset":60192}],"scenes":[{"name":"Root Scene","nodes":[0]}],"accessors":[{"componentType":5126,"type":"SCALAR","count":32,"bufferView":0,"byteOffset":0,"min":[0],"max":[1.29166662693024]},{"componentType":5126,"type":"VEC4","count":32,"bufferView":1,"byteOffset":0},{"componentType":5126,"type":"VEC4","count":32,"bufferView":2,"byteOffset":0},{"componentType":5126,"type":"VEC4","count":32,"bufferView":3,"byteOffset":0},{"componentType":5126,"type":"VEC4","count":32,"bufferView":4,"byteOffset":0},{"componentType":5126,"type":"VEC4","count":32,"bufferView":5,"byteOffset":0},{"componentType":5123,"type":"SCALAR","count":564,"bufferView":6,"byteOffset":0},{"componentType":5126,"type":"VEC3","count":396,"bufferView":7,"byteOffset":0,"min":[-0.00406531104817986,-0.0302587784826756,-0.00978499185293913],"max":[0.00406531104817986,0.0405935868620872,0.00619388232007623]},{"componentType":5126,"type":"VEC3","count":396,"bufferView":8,"byteOffset":0},{"componentType":5123,"type":"VEC4","count":396,"bufferView":9,"byteOffset":0},{"componentType":5126,"type":"VEC4","count":396,"bufferView":10,"byteOffset":0},{"componentType":5123,"type":"SCALAR","count":282,"bufferView":11,"byteOffset":0},{"componentType":5126,"type":"VEC3","count":192,"bufferView":12,"byteOffset":0,"min":[-0.00351307052187622,-0.0217749010771513,-0.00101471203379333],"max":[0.00351307052187622,0.0405935868620872,0.0111929811537266]},{"componentType":5126,"type":"VEC3","count":192,"bufferView":13,"byteOffset":0},{"componentType":5123,"type":"VEC4","count":192,"bufferView":14,"byteOffset":0},{"componentType":5126,"type":"VEC4","count":192,"bufferView":15,"byteOffset":0},{"componentType":5123,"type":"SCALAR","count":786,"bufferView":16,"byteOffset":0},{"componentType":5126,"type":"VEC3","count":542,"bufferView":17,"byteOffset":0,"min":[-0.00576770352199674,-0.0106954807415605,-0.0119923101738095],"max":[0.00576770352199674,0.0495761521160603,0.0146669046953321]},{"componentType":5126,"type":"VEC3","count":542,"bufferView":18,"byteOffset":0},{"componentType":5123,"type":"VEC4","count":542,"bufferView":19,"byteOffset":0},{"componentType":5126,"type":"VEC4","count":542,"bufferView":20,"byteOffset":0},{"componentType":5126,"type":"MAT4","count":8,"bufferView":21,"byteOffset":0}],"samplers":[{}],"materials":[{"name":"Bottom","alphaMode":"OPAQUE","extras":{"fromFBX":{"shadingModel":"Phong","isTruePBR":false}},"pbrMetallicRoughness":{"baseColorFactor":[0.547679543495178,0.640011131763458,0.582281112670898,1],"metallicFactor":0.400000005960464,"roughnessFactor":0.415087103843689}},{"name":"Top","alphaMode":"OPAQUE","extras":{"fromFBX":{"shadingModel":"Phong","isTruePBR":false}},"pbrMetallicRoughness":{"baseColorFactor":[0.640013813972473,0.28693100810051,0.192577376961708,1],"metallicFactor":0.400000005960464,"roughnessFactor":0.415087103843689}},{"name":"Fins","alphaMode":"OPAQUE","extras":{"fromFBX":{"shadingModel":"Phong","isTruePBR":false}},"pbrMetallicRoughness":{"baseColorFactor":[0.640001893043518,0.524790167808533,0.321365177631378,1],"metallicFactor":0.400000005960464,"roughnessFactor":0.415087103843689}}],"meshes":[{"name":"Fish","primitives":[{"material":0,"mode":4,"attributes":{"JOINTS_0":9,"NORMAL":8,"POSITION":7,"WEIGHTS_0":10},"indices":6},{"material":1,"mode":4,"attributes":{"JOINTS_0":14,"NORMAL":13,"POSITION":12,"WEIGHTS_0":15},"indices":11},{"material":2,"mode":4,"attributes":{"JOINTS_0":19,"NORMAL":18,"POSITION":17,"WEIGHTS_0":20},"indices":16}]}],"skins":[{"joints":[2,3,4,5,6,8,9,11],"inverseBindMatrices":21,"skeleton":2}],"animations":[{"name":"Armature|Swim","channels":[{"sampler":0,"target":{"node":2,"path":"rotation"}},{"sampler":1,"target":{"node":5,"path":"rotation"}},{"sampler":2,"target":{"node":6,"path":"rotation"}},{"sampler":3,"target":{"node":9,"path":"rotation"}},{"sampler":4,"target":{"node":11,"path":"rotation"}}],"samplers":[{"input":0,"interpolation":"LINEAR","output":1},{"input":0,"interpolation":"LINEAR","output":2},{"input":0,"interpolation":"LINEAR","output":3},{"input":0,"interpolation":"LINEAR","output":4},{"input":0,"interpolation":"LINEAR","output":5}]}],"nodes":[{"name":"RootNode","translation":[0,0,0],"rotation":[0,0,0,1],"scale":[1,1,1],"children":[1,13]},{"name":"Armature","translation":[0,0,0],"rotation":[-0.707106828689575,0,0,0.707106709480286],"scale":[100,100,100],"children":[2]},{"name":"Root","translation":[0,0,-0.00415153335779905],"rotation":[0.693036675453186,0,0,0.720902323722839],"scale":[1,1,1],"children":[3,8]},{"name":"Spine1","translation":[0.0000242817404796369,0.00414134003221989,0.0153544414788485],"rotation":[-0.680757999420166,0,0,0.732508420944214],"scale":[1,1,1],"children":[4]},{"name":"Spine2","translation":[-2.32830638449699e-12,0.0156159652397037,-4.65661276899398e-12],"rotation":[0.00726493075489998,-0.0000291585638478864,0.00301803601905704,0.999969065189362],"scale":[0.999999940395355,1,1],"children":[5]},{"name":"Spine3","translation":[-4.14729578804285e-12,0.0165900029242039,1.2865000731388e-10],"rotation":[0.00739061553031206,-0.0000150745390783413,-0.00301813846454024,0.999968111515045],"scale":[0.99999988079071,0.99999988079071,0.99999988079071],"children":[6]},{"name":"Tail","translation":[-5.68308507892246e-12,0.0172480680048466,-3.91908724516307e-16],"rotation":[-0.0665091052651405,6.58538334974423e-10,1.21813954478966e-8,0.997785806655884],"scale":[1,0.999999940395355,0.999999940395355],"children":[7]},{"name":"Tail_end","translation":[-8.67361718601358e-21,0.0122158480808139,0],"rotation":[6.93889390390723e-18,-1.03397576569128e-25,-3.30872245021211e-24,1],"scale":[1,1,1]},{"name":"Face","translation":[0.0000242817404796369,0.00373349920846522,0.0182036533951759],"rotation":[0.673732936382294,8.80941911418631e-7,8.03166074092587e-7,0.738974928855896],"scale":[1,1,1],"children":[9,11]},{"name":"Bone","translation":[0.00418676761910319,-0.00831182394176722,-0.00493874261155725],"rotation":[0.994926333427429,0.0985070616006851,0.00412798253819346,-0.020023375749588],"scale":[1.0000091791153,1.00000047683716,1.00000035762787],"children":[10]},{"name":"Bone_end","translation":[0,0.00665472121909261,0],"rotation":[-6.93889390390723e-18,9.62964972193618e-35,-1.38777878078145e-17,1],"scale":[1,1,1]},{"name":"Bone.001","translation":[-0.00466806860640645,-0.00783934816718102,-0.00489503005519509],"rotation":[0.996509730815887,-0.0810836628079414,0.000539650092832744,-0.0198376756161451],"scale":[0.999989688396454,0.999999582767487,0.999999403953552],"children":[12]},{"name":"Bone.001_end","translation":[0,0.00665472075343132,-5.55111499904869e-19],"rotation":[0,0,1.38777878078145e-17,1],"scale":[1,1,1]},{"name":"Fish","translation":[0,0,0],"rotation":[-0.707106828689575,0,0,0.707106709480286],"scale":[100,100,100],"mesh":0,"skin":0}]}