{"asset":{"generator":"FBX2glTF v0.9.7","version":"2.0"},"scene":0,"buffers":[{"byteLength":54020,"uri":"data:application/octet-stream;base64,"}],"bufferViews":[{"buffer":0,"byteLength":128,"byteOffset":0},{"buffer":0,"byteLength":512,"byteOffset":128},{"buffer":0,"byteLength":512,"byteOffset":640},{"buffer":0,"byteLength":512,"byteOffset":1152},{"buffer":0,"byteLength":512,"byteOffset":1664},{"buffer":0,"byteLength":512,"byteOffset":2176},{"buffer":0,"byteLength":972,"byteOffset":2688,"target":34963},{"buffer":0,"byteLength":3816,"byteOffset":3660,"target":34962},{"buffer":0,"byteLength":3816,"byteOffset":7476,"target":34962},{"buffer":0,"byteLength":2544,"byteOffset":11292,"target":34962},{"buffer":0,"byteLength":5088,"byteOffset":13836,"target":34962},{"buffer":0,"byteLength":1488,"byteOffset":18924,"target":34963},{"buffer":0,"byteLength":5736,"byteOffset":20412,"target":34962},{"buffer":0,"byteLength":5736,"byteOffset":26148,"target":34962},{"buffer":0,"byteLength":3824,"byteOffset":31884,"target":34962},{"buffer":0,"byteLength":7648,"byteOffset":35708,"target":34962},{"buffer":0,"byteLength":552,"byteOffset":43356,"target":34963},{"buffer":0,"byteLength":2400,"byteOffset":43908,"target":34962},{"buffer":0,"byteLength":2400,"byteOffset":46308,"target":34962},{"buffer":0,"byteLength":1600,"byteOffset":48708,"target":34962},{"buffer":0,"byteLength":3200,"byteOffset":50308,"target":34962},{"buffer":0,"byteLength":512,"byteOffset":53508}],"scenes":[{"name":"Root Scene","nodes":[0]}],"accessors":[{"componentType":5126,"type":"SCALAR","count":32,"bufferView":0,"byteOffset":0,"min":[0],"max":[1.29166662693024]},{"componentType":5126,"type":"VEC4","count":32,"bufferView":1,"byteOffset":0},{"componentType":5126,"type":"VEC4","count":32,"bufferView":2,"byteOffset":0},{"componentType":5126,"type":"VEC4","count":32,"bufferView":3,"byteOffset":0},{"componentType":5126,"type":"VEC4","count":32,"bufferView":4,"byteOffset":0},{"componentType":5126,"type":"VEC4","count":32,"bufferView":5,"byteOffset":0},{"componentType":5123,"type":"SCALAR","count":486,"bufferView":6,"byteOffset":0},{"componentType":5126,"type":"VEC3","count":318,"bufferView":7,"byteOffset":0,"min":[-0.00377965997904539,-0.0203869678080082,-0.0204239226877689],"max":[0.00377965997904539,0.0634817481040955,0.0279364921152592]},{"componentType":5126,"type":"VEC3","count":318,"bufferView":8,"byteOffset":0},{"componentType":5123,"type":"VEC4","count":318,"bufferView":9,"byteOffset":0},{"componentType":5126,"type":"VEC4","count":318,"bufferView":10,"byteOffset":0},{"componentType":5123,"type":"SCALAR","count":744,"bufferView":11,"byteOffset":0},{"componentType":5126,"type":"VEC3","count":478,"bufferView":12,"byteOffset":0,"min":[-0.00643697893247008,-0.0059381234459579,-0.0286392401903868],"max":[0.00643697893247008,0.0653210505843163,0.032853402197361]},{"componentType":5126,"type":"VEC3","count":478,"bufferView":13,"byteOffset":0},{"componentType":5123,"type":"VEC4","count":478,"bufferView":14,"byteOffset":0},{"componentType":5126,"type":"VEC4","count":478,"bufferView":15,"byteOffset":0},{"componentType":5123,"type":"SCALAR","count":276,"bufferView":16,"byteOffset":0},{"componentType":5126,"type":"VEC3","count":200,"bufferView":17,"byteOffset":0,"min":[-0.00474966922774911,-0.0334209017455578,-0.0139206117019057],"max":[0.00474966922774911,-0.00747060403227806,0.0171724930405617]},{"componentType":5126,"type":"VEC3","count":200,"bufferView":18,"byteOffset":0},{"componentType":5123,"type":"VEC4","count":200,"bufferView":19,"byteOffset":0},{"componentType":5126,"type":"VEC4","count":200,"bufferView":20,"byteOffset":0},{"componentType":5126,"type":"MAT4","count":8,"bufferView":21,"byteOffset":0}],"samplers":[{}],"materials":[{"name":"Body","alphaMode":"OPAQUE","extras":{"fromFBX":{"shadingModel":"Phong","isTruePBR":false}},"pbrMetallicRoughness":{"baseColorFactor":[0.0594310276210308,0.0909046903252602,0.640004336833954,1],"metallicFactor":0.400000005960464,"roughnessFactor":0.415087103843689}},{"name":"Fins","alphaMode":"OPAQUE","extras":{"fromFBX":{"shadingModel":"Phong","isTruePBR":false}},"pbrMetallicRoughness":{"baseColorFactor":[0.578439652919769,0.545266270637512,0.305827051401138,1],"metallicFactor":0.400000005960464,"roughnessFactor":0.415087103843689}},{"name":"Front","alphaMode":"OPAQUE","extras":{"fromFBX":{"shadingModel":"Phong","isTruePBR":false}},"pbrMetallicRoughness":{"baseColorFactor":[0.185842201113701,0.393600940704346,0.800000011920929,1],"metallicFactor":0.400000005960464,"roughnessFactor":0.415087103843689}}],"meshes":[{"name":"Fish2","primitives":[{"material":0,"mode":4,"attributes":{"JOINTS_0":9,"NORMAL":8,"POSITION":7,"WEIGHTS_0":10},"indices":6},{"material":1,"mode":4,"attributes":{"JOINTS_0":14,"NORMAL":13,"POSITION":12,"WEIGHTS_0":15},"indices":11},{"material":2,"mode":4,"attributes":{"JOINTS_0":19,"NORMAL":18,"POSITION":17,"WEIGHTS_0":20},"indices":16}]}],"skins":[{"joints":[2,3,4,5,6,8,9,11],"inverseBindMatrices":21,"skeleton":2}],"animations":[{"name":"Armature|Swim.001","channels":[{"sampler":0,"target":{"node":2,"path":"rotation"}},{"sampler":1,"target":{"node":5,"path":"rotation"}},{"sampler":2,"target":{"node":6,"path":"rotation"}},{"sampler":3,"target":{"node":9,"path":"rotation"}},{"sampler":4,"target":{"node":11,"path":"rotation"}}],"samplers":[{"input":0,"interpolation":"LINEAR","output":1},{"input":0,"interpolation":"LINEAR","output":2},{"input":0,"interpolation":"LINEAR","output":3},{"input":0,"interpolation":"LINEAR","output":4},{"input":0,"interpolation":"LINEAR","output":5}]}],"nodes":[{"name":"RootNode","translation":[0,0,0],"rotation":[0,0,0,1],"scale":[1,1,1],"children":[1,13]},{"name":"Armature","translation":[0,0,0],"rotation":[-0.707106828689575,0,0,0.707106709480286],"scale":[100,100,100],"children":[2]},{"name":"Root","translation":[0,-1.32348895050256e-25,-0.00499999988824129],"rotation":[0.692927718162537,-0.0123075423762202,-0.0127646243199706,0.720788955688477],"scale":[1,0.999999940395355,0.999999940395355],"children":[3,8]},{"name":"Spine1","translation":[0.000024281758669531,0.0041413395665586,0.0153544396162033],"rotation":[-0.680758059024811,3.49515111297549e-10,1.42793710189437e-9,0.732508361339569],"scale":[1,0.999999940395355,1],"children":[4]},{"name":"Spine2","translation":[-2.73212199392026e-11,0.0156159633770585,-8.7266010390108e-12],"rotation":[-0.00198356690816581,-0.0000541830231668428,0.00262252986431122,0.999994575977325],"scale":[1,1,1],"children":[5]},{"name":"Spine3","translation":[2.40834192866135e-11,0.0190935805439949,5.38420835693998e-11],"rotation":[-0.022346381098032,0.00870221666991711,0.077351912856102,0.996715426445007],"scale":[0.99999988079071,0.999999940395355,0.999999940395355],"children":[6]},{"name":"Tail","translation":[1.22236092775507e-11,0.0287127494812012,-7.45058043039037e-11],"rotation":[-0.0212234444916248,-0.00588187715038657,0.165133401751518,0.986025333404541],"scale":[1,1,1],"children":[7]},{"name":"Tail_end","translation":[0,0.0142029663547873,0],"rotation":[-4.81482486096809e-35,-1.73472347597681e-18,-2.77555756156289e-17,1],"scale":[1,1,1]},{"name":"Face","translation":[0.000024281795049319,0.00373349897563457,0.0182036533951759],"rotation":[0.74504029750824,0.00000151134702264244,0.00000168726978699851,0.667019486427307],"scale":[1,0.999999821186066,0.999999940395355],"children":[9,11]},{"name":"Fin.L","translation":[0.00555142434313893,-0.0189665947109461,0.0106509877368808],"rotation":[0.9918532371521,0.063189297914505,-0.0265327338129282,-0.107379078865051],"scale":[1.00000023841858,1,1.00000596046448],"children":[10]},{"name":"Fin.L_end","translation":[0,0.0103049017488956,0],"rotation":[0,0,-2.77555756156289e-17,1],"scale":[1,1,1]},{"name":"Fin.R","translation":[-0.00501140300184488,-0.0193704757839441,0.0106038423255086],"rotation":[0.99062591791153,-0.0906058847904205,0.0183998644351959,-0.100559994578362],"scale":[1.00000083446503,1.00000011920929,1.0000034570694],"children":[12]},{"name":"Fin.R_end","translation":[0,0.0107944831252098,0],"rotation":[2.77555756156289e-17,-3.46944695195361e-18,1.38777878078145e-17,1],"scale":[1,1,1]},{"name":"Fish2","translation":[0,0,0],"rotation":[-0.707106828689575,0,0,0.707106709480286],"scale":[100,100,100],"mesh":0,"skin":0}]}