{"asset":{"generator":"FBX2glTF v0.9.7","version":"2.0"},"scene":0,"buffers":[{"byteLength":73076,"uri":"data:application/octet-stream;base64,"}],"bufferViews":[{"buffer":0,"byteLength":128,"byteOffset":0},{"buffer":0,"byteLength":512,"byteOffset":128},{"buffer":0,"byteLength":512,"byteOffset":640},{"buffer":0,"byteLength":512,"byteOffset":1152},{"buffer":0,"byteLength":1152,"byteOffset":1664,"target":34963},{"buffer":0,"byteLength":4608,"byteOffset":2816,"target":34962},{"buffer":0,"byteLength":4608,"byteOffset":7424,"target":34962},{"buffer":0,"byteLength":3072,"byteOffset":12032,"target":34962},{"buffer":0,"byteLength":6144,"byteOffset":15104,"target":34962},{"buffer":0,"byteLength":2388,"byteOffset":21248,"target":34963},{"buffer":0,"byteLength":9816,"byteOffset":23636,"target":34962},{"buffer":0,"byteLength":9816,"byteOffset":33452,"target":34962},{"buffer":0,"byteLength":6544,"byteOffset":43268,"target":34962},{"buffer":0,"byteLength":13088,"byteOffset":49812,"target":34962},{"buffer":0,"byteLength":576,"byteOffset":62900,"target":34963},{"buffer":0,"byteLength":2304,"byteOffset":63476,"target":34962},{"buffer":0,"byteLength":2304,"byteOffset":65780,"target":34962},{"buffer":0,"byteLength":1536,"byteOffset":68084,"target":34962},{"buffer":0,"byteLength":3072,"byteOffset":69620,"target":34962},{"buffer":0,"byteLength":384,"byteOffset":72692}],"scenes":[{"name":"Root Scene","nodes":[0]}],"accessors":[{"componentType":5126,"type":"SCALAR","count":32,"bufferView":0,"byteOffset":0,"min":[0],"max":[1.29166662693024]},{"componentType":5126,"type":"VEC4","count":32,"bufferView":1,"byteOffset":0},{"componentType":5126,"type":"VEC4","count":32,"bufferView":2,"byteOffset":0},{"componentType":5126,"type":"VEC4","count":32,"bufferView":3,"byteOffset":0},{"componentType":5123,"type":"SCALAR","count":576,"bufferView":4,"byteOffset":0},{"componentType":5126,"type":"VEC3","count":384,"bufferView":5,"byteOffset":0,"min":[-0.00480240397155285,-0.0225212015211582,-0.010878661647439],"max":[0.00480240397155285,0.0326611213386059,0.0157944690436125]},{"componentType":5126,"type":"VEC3","count":384,"bufferView":6,"byteOffset":0},{"componentType":5123,"type":"VEC4","count":384,"bufferView":7,"byteOffset":0},{"componentType":5126,"type":"VEC4","count":384,"bufferView":8,"byteOffset":0},{"componentType":5123,"type":"SCALAR","count":1194,"bufferView":9,"byteOffset":0},{"componentType":5126,"type":"VEC3","count":818,"bufferView":10,"byteOffset":0,"min":[-0.00474300887435675,-0.0312420669943094,-0.0171988811343908],"max":[0.00474300887435675,0.0475291907787323,0.0234348773956299]},{"componentType":5126,"type":"VEC3","count":818,"bufferView":11,"byteOffset":0},{"componentType":5123,"type":"VEC4","count":818,"bufferView":12,"byteOffset":0},{"componentType":5126,"type":"VEC4","count":818,"bufferView":13,"byteOffset":0},{"componentType":5123,"type":"SCALAR","count":288,"bufferView":14,"byteOffset":0},{"componentType":5126,"type":"VEC3","count":192,"bufferView":15,"byteOffset":0,"min":[-0.00480240397155285,-0.0217836201190948,-0.0106931086629629],"max":[0.00480240397155285,0.0316072441637516,0.0157915614545345]},{"componentType":5126,"type":"VEC3","count":192,"bufferView":16,"byteOffset":0},{"componentType":5123,"type":"VEC4","count":192,"bufferView":17,"byteOffset":0},{"componentType":5126,"type":"VEC4","count":192,"bufferView":18,"byteOffset":0},{"componentType":5126,"type":"MAT4","count":6,"bufferView":19,"byteOffset":0}],"samplers":[{}],"materials":[{"name":"Outline","alphaMode":"OPAQUE","extras":{"fromFBX":{"shadingModel":"Phong","isTruePBR":false}},"pbrMetallicRoughness":{"baseColorFactor":[0.0375693216919899,0.0375693216919899,0.0375693216919899,1],"metallicFactor":0.400000005960464,"roughnessFactor":0.415087103843689}},{"name":"Body","alphaMode":"OPAQUE","extras":{"fromFBX":{"shadingModel":"Phong","isTruePBR":false}},"pbrMetallicRoughness":{"baseColorFactor":[0.64000004529953,0.108973525464535,0.0148532716557384,1],"metallicFactor":0.400000005960464,"roughnessFactor":0.415087103843689}},{"name":"Stripes","alphaMode":"OPAQUE","extras":{"fromFBX":{"shadingModel":"Phong","isTruePBR":false}},"pbrMetallicRoughness":{"baseColorFactor":[0.64000004529953,0.606396734714508,0.511862814426422,1],"metallicFactor":0.400000005960464,"roughnessFactor":0.415087103843689}}],"meshes":[{"name":"ClownFish","primitives":[{"material":0,"mode":4,"attributes":{"JOINTS_0":7,"NORMAL":6,"POSITION":5,"WEIGHTS_0":8},"indices":4},{"material":1,"mode":4,"attributes":{"JOINTS_0":12,"NORMAL":11,"POSITION":10,"WEIGHTS_0":13},"indices":9},{"material":2,"mode":4,"attributes":{"JOINTS_0":17,"NORMAL":16,"POSITION":15,"WEIGHTS_0":18},"indices":14}]}],"skins":[{"joints":[2,3,4,5,6,8],"inverseBindMatrices":19,"skeleton":2}],"animations":[{"name":"Armature|Swim","channels":[{"sampler":0,"target":{"node":2,"path":"rotation"}},{"sampler":1,"target":{"node":5,"path":"rotation"}},{"sampler":2,"target":{"node":6,"path":"rotation"}}],"samplers":[{"input":0,"interpolation":"LINEAR","output":1},{"input":0,"interpolation":"LINEAR","output":2},{"input":0,"interpolation":"LINEAR","output":3}]}],"nodes":[{"name":"RootNode","translation":[0,0,0],"rotation":[0,0,0,1],"scale":[1,1,1],"children":[1,10]},{"name":"Armature","translation":[0,0,0],"rotation":[-0.707106828689575,0,0,0.707106709480286],"scale":[100,100,100],"children":[2]},{"name":"Root","translation":[0,-1.32348895050256e-25,-0.00499999988824129],"rotation":[0.692930281162262,0.0121752582490444,0.0126036563888192,0.720791637897491],"scale":[1,0.99999988079071,0.99999988079071],"children":[3,8]},{"name":"Spine1","translation":[0.0000242817368416581,0.00414133910089731,0.0153544386848807],"rotation":[-0.680758059024811,-1.02914510247132e-9,7.22077897474804e-10,0.732508361339569],"scale":[1,0.999999940395355,0.999999940395355],"children":[4]},{"name":"Spine2","translation":[-7.80209993833658e-11,0.0156159652397037,-1.22929574505881e-11],"rotation":[0.00726493122056127,-0.000029158580218791,0.00301803555339575,0.999969065189362],"scale":[0.999999940395355,1,1],"children":[5]},{"name":"Spine3","translation":[1.28984531388987e-10,0.016590004786849,1.57888268431661e-11],"rotation":[0.00500869611278176,-0.00768812419846654,-0.111536607146263,0.993717968463898],"scale":[0.999999821186066,1,1],"children":[6]},{"name":"Tail","translation":[-1.85682427766842e-10,0.0158398654311895,4.65661259552164e-11],"rotation":[-0.054261639714241,-0.000996087328530848,-0.2247683852911,0.972899734973907],"scale":[0.999999940395355,1.00000011920929,1],"children":[7]},{"name":"Tail_end","translation":[-2.22044599961948e-18,0.0136047964915633,5.55111499904869e-19],"rotation":[6.93889390390723e-18,-1.73472347597681e-18,1.20370621524202e-35,1],"scale":[1,1,1]},{"name":"Face","translation":[0.0000242817750404356,0.0044035641476512,0.0185014568269253],"rotation":[0.74148553609848,0.0000010390275519967,0.000001148949763774,0.67096883058548],"scale":[1,0.999999940395355,1],"children":[9]},{"name":"Face_end","translation":[-1.38777874976217e-19,0.0117659904062748,-4.16333624928652e-19],"rotation":[-3.46944695195361e-18,-4.33680868994202e-19,-3.46944695195361e-18,1],"scale":[1,1,1]},{"name":"ClownFish","translation":[0,0,0],"rotation":[-0.707106828689575,0,0,0.707106709480286],"scale":[100,100,100],"mesh":0,"skin":0}]}