{"asset":{"generator":"FBX2glTF v0.9.7","version":"2.0"},"scene":0,"buffers":[{"byteLength":215364,"uri":"data:application/octet-stream;base64,"}],"bufferViews":[{"buffer":0,"byteLength":64,"byteOffset":0},{"buffer":0,"byteLength":192,"byteOffset":64},{"buffer":0,"byteLength":256,"byteOffset":256},{"buffer":0,"byteLength":256,"byteOffset":512},{"buffer":0,"byteLength":256,"byteOffset":768},{"buffer":0,"byteLength":256,"byteOffset":1024},{"buffer":0,"byteLength":256,"byteOffset":1280},{"buffer":0,"byteLength":256,"byteOffset":1536},{"buffer":0,"byteLength":292,"byteOffset":1792},{"buffer":0,"byteLength":1168,"byteOffset":2084},{"buffer":0,"byteLength":1168,"byteOffset":3252},{"buffer":0,"byteLength":1168,"byteOffset":4420},{"buffer":0,"byteLength":1168,"byteOffset":5588},{"buffer":0,"byteLength":1168,"byteOffset":6756},{"buffer":0,"byteLength":1168,"byteOffset":7924},{"buffer":0,"byteLength":148,"byteOffset":9092},{"buffer":0,"byteLength":444,"byteOffset":9240},{"buffer":0,"byteLength":592,"byteOffset":9684},{"buffer":0,"byteLength":592,"byteOffset":10276},{"buffer":0,"byteLength":592,"byteOffset":10868},{"buffer":0,"byteLength":592,"byteOffset":11460},{"buffer":0,"byteLength":592,"byteOffset":12052},{"buffer":0,"byteLength":592,"byteOffset":12644},{"buffer":0,"byteLength":104,"byteOffset":13236},{"buffer":0,"byteLength":416,"byteOffset":13340},{"buffer":0,"byteLength":416,"byteOffset":13756},{"buffer":0,"byteLength":416,"byteOffset":14172},{"buffer":0,"byteLength":416,"byteOffset":14588},{"buffer":0,"byteLength":416,"byteOffset":15004},{"buffer":0,"byteLength":416,"byteOffset":15420},{"buffer":0,"byteLength":116,"byteOffset":15836},{"buffer":0,"byteLength":464,"byteOffset":15952},{"buffer":0,"byteLength":464,"byteOffset":16416},{"buffer":0,"byteLength":464,"byteOffset":16880},{"buffer":0,"byteLength":464,"byteOffset":17344},{"buffer":0,"byteLength":464,"byteOffset":17808},{"buffer":0,"byteLength":464,"byteOffset":18272},{"buffer":0,"byteLength":224,"byteOffset":18736},{"buffer":0,"byteLength":896,"byteOffset":18960},{"buffer":0,"byteLength":896,"byteOffset":19856},{"buffer":0,"byteLength":896,"byteOffset":20752},{"buffer":0,"byteLength":896,"byteOffset":21648},{"buffer":0,"byteLength":896,"byteOffset":22544},{"buffer":0,"byteLength":896,"byteOffset":23440},{"buffer":0,"byteLength":1104,"byteOffset":24336,"target":34963},{"buffer":0,"byteLength":4512,"byteOffset":25440,"target":34962},{"buffer":0,"byteLength":4512,"byteOffset":29952,"target":34962},{"buffer":0,"byteLength":3008,"byteOffset":34464,"target":34962},{"buffer":0,"byteLength":6016,"byteOffset":37472,"target":34962},{"buffer":0,"byteLength":5328,"byteOffset":43488,"target":34963},{"buffer":0,"byteLength":21936,"byteOffset":48816,"target":34962},{"buffer":0,"byteLength":21936,"byteOffset":70752,"target":34962},{"buffer":0,"byteLength":14624,"byteOffset":92688,"target":34962},{"buffer":0,"byteLength":29248,"byteOffset":107312,"target":34962},{"buffer":0,"byteLength":144,"byteOffset":136560,"target":34963},{"buffer":0,"byteLength":672,"byteOffset":136704,"target":34962},{"buffer":0,"byteLength":672,"byteOffset":137376,"target":34962},{"buffer":0,"byteLength":448,"byteOffset":138048,"target":34962},{"buffer":0,"byteLength":896,"byteOffset":138496,"target":34962},{"buffer":0,"byteLength":3264,"byteOffset":139392,"target":34963},{"buffer":0,"byteLength":13584,"byteOffset":142656,"target":34962},{"buffer":0,"byteLength":13584,"byteOffset":156240,"target":34962},{"buffer":0,"byteLength":9056,"byteOffset":169824,"target":34962},{"buffer":0,"byteLength":18112,"byteOffset":178880,"target":34962},{"buffer":0,"byteLength":132,"byteOffset":196992,"target":34963},{"buffer":0,"byteLength":504,"byteOffset":197124,"target":34962},{"buffer":0,"byteLength":504,"byteOffset":197628,"target":34962},{"buffer":0,"byteLength":336,"byteOffset":198132,"target":34962},{"buffer":0,"byteLength":672,"byteOffset":198468,"target":34962},{"buffer":0,"byteLength":2880,"byteOffset":199140,"target":34963},{"buffer":0,"byteLength":3144,"byteOffset":202020,"target":34962},{"buffer":0,"byteLength":3144,"byteOffset":205164,"target":34962},{"buffer":0,"byteLength":2096,"byteOffset":208308,"target":34962},{"buffer":0,"byteLength":4192,"byteOffset":210404,"target":34962},{"buffer":0,"byteLength":384,"byteOffset":214596},{"buffer":0,"byteLength":384,"byteOffset":214980}],"scenes":[{"name":"Root Scene","nodes":[0]}],"accessors":[{"componentType":5126,"type":"SCALAR","count":16,"bufferView":0,"byteOffset":0,"min":[0],"max":[0.625]},{"componentType":5126,"type":"VEC3","count":16,"bufferView":1,"byteOffset":0},{"componentType":5126,"type":"VEC4","count":16,"bufferView":2,"byteOffset":0},{"componentType":5126,"type":"VEC4","count":16,"bufferView":3,"byteOffset":0},{"componentType":5126,"type":"VEC4","count":16,"bufferView":4,"byteOffset":0},{"componentType":5126,"type":"VEC4","count":16,"bufferView":5,"byteOffset":0},{"componentType":5126,"type":"VEC4","count":16,"bufferView":6,"byteOffset":0},{"componentType":5126,"type":"VEC4","count":16,"bufferView":7,"byteOffset":0},{"componentType":5126,"type":"SCALAR","count":73,"bufferView":8,"byteOffset":0,"min":[0],"max":[3]},{"componentType":5126,"type":"VEC4","count":73,"bufferView":9,"byteOffset":0},{"componentType":5126,"type":"VEC4","count":73,"bufferView":10,"byteOffset":0},{"componentType":5126,"type":"VEC4","count":73,"bufferView":11,"byteOffset":0},{"componentType":5126,"type":"VEC4","count":73,"bufferView":12,"byteOffset":0},{"componentType":5126,"type":"VEC4","count":73,"bufferView":13,"byteOffset":0},{"componentType":5126,"type":"VEC4","count":73,"bufferView":14,"byteOffset":0},{"componentType":5126,"type":"SCALAR","count":37,"bufferView":15,"byteOffset":0,"min":[0],"max":[1.5]},{"componentType":5126,"type":"VEC3","count":37,"bufferView":16,"byteOffset":0},{"componentType":5126,"type":"VEC4","count":37,"bufferView":17,"byteOffset":0},{"componentType":5126,"type":"VEC4","count":37,"bufferView":18,"byteOffset":0},{"componentType":5126,"type":"VEC4","count":37,"bufferView":19,"byteOffset":0},{"componentType":5126,"type":"VEC4","count":37,"bufferView":20,"byteOffset":0},{"componentType":5126,"type":"VEC4","count":37,"bufferView":21,"byteOffset":0},{"componentType":5126,"type":"VEC4","count":37,"bufferView":22,"byteOffset":0},{"componentType":5126,"type":"SCALAR","count":26,"bufferView":23,"byteOffset":0,"min":[0],"max":[1.04166662693024]},{"componentType":5126,"type":"VEC4","count":26,"bufferView":24,"byteOffset":0},{"componentType":5126,"type":"VEC4","count":26,"bufferView":25,"byteOffset":0},{"componentType":5126,"type":"VEC4","count":26,"bufferView":26,"byteOffset":0},{"componentType":5126,"type":"VEC4","count":26,"bufferView":27,"byteOffset":0},{"componentType":5126,"type":"VEC4","count":26,"bufferView":28,"byteOffset":0},{"componentType":5126,"type":"VEC4","count":26,"bufferView":29,"byteOffset":0},{"componentType":5126,"type":"SCALAR","count":29,"bufferView":30,"byteOffset":0,"min":[0],"max":[1.16666662693024]},{"componentType":5126,"type":"VEC4","count":29,"bufferView":31,"byteOffset":0},{"componentType":5126,"type":"VEC4","count":29,"bufferView":32,"byteOffset":0},{"componentType":5126,"type":"VEC4","count":29,"bufferView":33,"byteOffset":0},{"componentType":5126,"type":"VEC4","count":29,"bufferView":34,"byteOffset":0},{"componentType":5126,"type":"VEC4","count":29,"bufferView":35,"byteOffset":0},{"componentType":5126,"type":"VEC4","count":29,"bufferView":36,"byteOffset":0},{"componentType":5126,"type":"SCALAR","count":56,"bufferView":37,"byteOffset":0,"min":[0],"max":[2.29166674613953]},{"componentType":5126,"type":"VEC4","count":56,"bufferView":38,"byteOffset":0},{"componentType":5126,"type":"VEC4","count":56,"bufferView":39,"byteOffset":0},{"componentType":5126,"type":"VEC4","count":56,"bufferView":40,"byteOffset":0},{"componentType":5126,"type":"VEC4","count":56,"bufferView":41,"byteOffset":0},{"componentType":5126,"type":"VEC4","count":56,"bufferView":42,"byteOffset":0},{"componentType":5126,"type":"VEC4","count":56,"bufferView":43,"byteOffset":0},{"componentType":5123,"type":"SCALAR","count":552,"bufferView":44,"byteOffset":0},{"componentType":5126,"type":"VEC3","count":376,"bufferView":45,"byteOffset":0,"min":[-0.0142414169386029,-0.00395442172884941,-0.00011677443399094],"max":[0.0142414169386029,-0.000448065984528512,0.00873544719070196]},{"componentType":5126,"type":"VEC3","count":376,"bufferView":46,"byteOffset":0},{"componentType":5123,"type":"VEC4","count":376,"bufferView":47,"byteOffset":0},{"componentType":5126,"type":"VEC4","count":376,"bufferView":48,"byteOffset":0},{"componentType":5123,"type":"SCALAR","count":2664,"bufferView":49,"byteOffset":0},{"componentType":5126,"type":"VEC3","count":1828,"bufferView":50,"byteOffset":0,"min":[-0.0140499258413911,-0.0145165212452412,-0.00210570055060089],"max":[0.0140499258413911,0.0224747266620398,0.0140791460871696]},{"componentType":5126,"type":"VEC3","count":1828,"bufferView":51,"byteOffset":0},{"componentType":5123,"type":"VEC4","count":1828,"bufferView":52,"byteOffset":0},{"componentType":5126,"type":"VEC4","count":1828,"bufferView":53,"byteOffset":0},{"componentType":5123,"type":"SCALAR","count":72,"bufferView":54,"byteOffset":0},{"componentType":5126,"type":"VEC3","count":56,"bufferView":55,"byteOffset":0,"min":[-0.0173278916627169,-0.00405863579362631,0.00604498898610473],"max":[0.0173278916627169,0.0000833198428153992,0.0108625888824463]},{"componentType":5126,"type":"VEC3","count":56,"bufferView":56,"byteOffset":0},{"componentType":5123,"type":"VEC4","count":56,"bufferView":57,"byteOffset":0},{"componentType":5126,"type":"VEC4","count":56,"bufferView":58,"byteOffset":0},{"componentType":5123,"type":"SCALAR","count":1632,"bufferView":59,"byteOffset":0},{"componentType":5126,"type":"VEC3","count":1132,"bufferView":60,"byteOffset":0,"min":[-0.0124931437894702,-0.0139498459175229,-0.0121595440432429],"max":[0.0124931437894702,0.0256915129721165,0.00517047289758921]},{"componentType":5126,"type":"VEC3","count":1132,"bufferView":61,"byteOffset":0},{"componentType":5123,"type":"VEC4","count":1132,"bufferView":62,"byteOffset":0},{"componentType":5126,"type":"VEC4","count":1132,"bufferView":63,"byteOffset":0},{"componentType":5123,"type":"SCALAR","count":66,"bufferView":64,"byteOffset":0},{"componentType":5126,"type":"VEC3","count":42,"bufferView":65,"byteOffset":0,"min":[-0.00203695590607822,-0.0143293254077435,0.00275623728521168],"max":[0.00203695590607822,-0.0113036129623652,0.00461400300264359]},{"componentType":5126,"type":"VEC3","count":42,"bufferView":66,"byteOffset":0},{"componentType":5123,"type":"VEC4","count":42,"bufferView":67,"byteOffset":0},{"componentType":5126,"type":"VEC4","count":42,"bufferView":68,"byteOffset":0},{"componentType":5123,"type":"SCALAR","count":1440,"bufferView":69,"byteOffset":0},{"componentType":5126,"type":"VEC3","count":262,"bufferView":70,"byteOffset":0,"min":[-0.0121593521907926,-0.0137291420251131,0.00239641452208161],"max":[0.0121593521907926,-0.00645945221185684,0.0105684110894799]},{"componentType":5126,"type":"VEC3","count":262,"bufferView":71,"byteOffset":0},{"componentType":5123,"type":"VEC4","count":262,"bufferView":72,"byteOffset":0},{"componentType":5126,"type":"VEC4","count":262,"bufferView":73,"byteOffset":0},{"componentType":5126,"type":"MAT4","count":6,"bufferView":74,"byteOffset":0},{"componentType":5126,"type":"MAT4","count":6,"bufferView":75,"byteOffset":0}],"samplers":[{}],"materials":[{"name":"Pufferfish_Main","alphaMode":"OPAQUE","extras":{"fromFBX":{"shadingModel":"Phong","isTruePBR":false}},"pbrMetallicRoughness":{"baseColorFactor":[0.343376100063324,0.303619086742401,0.129670470952988,1],"metallicFactor":0.400000005960464,"roughnessFactor":0.415087103843689}},{"name":"Pufferfish_Light","alphaMode":"OPAQUE","extras":{"fromFBX":{"shadingModel":"Phong","isTruePBR":false}},"pbrMetallicRoughness":{"baseColorFactor":[0.413862854242325,0.405704498291016,0.29275569319725,1],"metallicFactor":0.400000005960464,"roughnessFactor":0.415087103843689}},{"name":"Puffefish_Black","alphaMode":"OPAQUE","extras":{"fromFBX":{"shadingModel":"Phong","isTruePBR":false}},"pbrMetallicRoughness":{"baseColorFactor":[0.0336208455264568,0.0302211288362741,0.0147810084745288,1],"metallicFactor":0.400000005960464,"roughnessFactor":0.415087103843689}},{"name":"Eyes","alphaMode":"OPAQUE","extras":{"fromFBX":{"shadingModel":"Phong","isTruePBR":false}},"pbrMetallicRoughness":{"baseColorFactor":[0.00797184184193611,0.00797184184193611,0.00797184184193611,1],"metallicFactor":0.400000005960464,"roughnessFactor":0.415087103843689}}],"meshes":[{"name":"Pufferfish.002","primitives":[{"material":0,"mode":4,"attributes":{"JOINTS_0":47,"NORMAL":46,"POSITION":45,"WEIGHTS_0":48},"indices":44},{"material":1,"mode":4,"attributes":{"JOINTS_0":57,"NORMAL":56,"POSITION":55,"WEIGHTS_0":58},"indices":54}]},{"name":"Pufferfish","primitives":[{"material":0,"mode":4,"attributes":{"JOINTS_0":52,"NORMAL":51,"POSITION":50,"WEIGHTS_0":53},"indices":49},{"material":1,"mode":4,"attributes":{"JOINTS_0":62,"NORMAL":61,"POSITION":60,"WEIGHTS_0":63},"indices":59},{"material":2,"mode":4,"attributes":{"JOINTS_0":67,"NORMAL":66,"POSITION":65,"WEIGHTS_0":68},"indices":64},{"material":3,"mode":4,"attributes":{"JOINTS_0":72,"NORMAL":71,"POSITION":70,"WEIGHTS_0":73},"indices":69}]}],"skins":[{"joints":[3,4,5,6,7,8],"inverseBindMatrices":74,"skeleton":3},{"joints":[3,4,5,6,7,8],"inverseBindMatrices":75,"skeleton":3}],"animations":[{"name":"Fish_Armature|Attack","channels":[{"sampler":0,"target":{"node":3,"path":"translation"}},{"sampler":1,"target":{"node":3,"path":"rotation"}},{"sampler":2,"target":{"node":4,"path":"rotation"}},{"sampler":3,"target":{"node":5,"path":"rotation"}},{"sampler":4,"target":{"node":6,"path":"rotation"}},{"sampler":5,"target":{"node":7,"path":"rotation"}},{"sampler":6,"target":{"node":8,"path":"rotation"}}],"samplers":[{"input":0,"interpolation":"LINEAR","output":1},{"input":0,"interpolation":"LINEAR","output":2},{"input":0,"interpolation":"LINEAR","output":3},{"input":0,"interpolation":"LINEAR","output":4},{"input":0,"interpolation":"LINEAR","output":5},{"input":0,"interpolation":"LINEAR","output":6},{"input":0,"interpolation":"LINEAR","output":7}]},{"name":"Fish_Armature|Death","channels":[{"sampler":0,"target":{"node":3,"path":"rotation"}},{"sampler":1,"target":{"node":4,"path":"rotation"}},{"sampler":2,"target":{"node":5,"path":"rotation"}},{"sampler":3,"target":{"node":6,"path":"rotation"}},{"sampler":4,"target":{"node":7,"path":"rotation"}},{"sampler":5,"target":{"node":8,"path":"rotation"}}],"samplers":[{"input":8,"interpolation":"LINEAR","output":9},{"input":8,"interpolation":"LINEAR","output":10},{"input":8,"interpolation":"LINEAR","output":11},{"input":8,"interpolation":"LINEAR","output":12},{"input":8,"interpolation":"LINEAR","output":13},{"input":8,"interpolation":"LINEAR","output":14}]},{"name":"Fish_Armature|Out_Of_Water","channels":[{"sampler":0,"target":{"node":3,"path":"translation"}},{"sampler":1,"target":{"node":3,"path":"rotation"}},{"sampler":2,"target":{"node":4,"path":"rotation"}},{"sampler":3,"target":{"node":5,"path":"rotation"}},{"sampler":4,"target":{"node":6,"path":"rotation"}},{"sampler":5,"target":{"node":7,"path":"rotation"}},{"sampler":6,"target":{"node":8,"path":"rotation"}}],"samplers":[{"input":15,"interpolation":"LINEAR","output":16},{"input":15,"interpolation":"LINEAR","output":17},{"input":15,"interpolation":"LINEAR","output":18},{"input":15,"interpolation":"LINEAR","output":19},{"input":15,"interpolation":"LINEAR","output":20},{"input":15,"interpolation":"LINEAR","output":21},{"input":15,"interpolation":"LINEAR","output":22}]},{"name":"Fish_Armature|Swimming_Fast","channels":[{"sampler":0,"target":{"node":3,"path":"rotation"}},{"sampler":1,"target":{"node":4,"path":"rotation"}},{"sampler":2,"target":{"node":5,"path":"rotation"}},{"sampler":3,"target":{"node":6,"path":"rotation"}},{"sampler":4,"target":{"node":7,"path":"rotation"}},{"sampler":5,"target":{"node":8,"path":"rotation"}}],"samplers":[{"input":23,"interpolation":"LINEAR","output":24},{"input":23,"interpolation":"LINEAR","output":25},{"input":23,"interpolation":"LINEAR","output":26},{"input":23,"interpolation":"LINEAR","output":27},{"input":23,"interpolation":"LINEAR","output":28},{"input":23,"interpolation":"LINEAR","output":29}]},{"name":"Fish_Armature|Swimming_Impulse","channels":[{"sampler":0,"target":{"node":3,"path":"rotation"}},{"sampler":1,"target":{"node":4,"path":"rotation"}},{"sampler":2,"target":{"node":5,"path":"rotation"}},{"sampler":3,"target":{"node":6,"path":"rotation"}},{"sampler":4,"target":{"node":7,"path":"rotation"}},{"sampler":5,"target":{"node":8,"path":"rotation"}}],"samplers":[{"input":30,"interpolation":"LINEAR","output":31},{"input":30,"interpolation":"LINEAR","output":32},{"input":30,"interpolation":"LINEAR","output":33},{"input":30,"interpolation":"LINEAR","output":34},{"input":30,"interpolation":"LINEAR","output":35},{"input":30,"interpolation":"LINEAR","output":36}]},{"name":"Fish_Armature|Swimming_Normal","channels":[{"sampler":0,"target":{"node":3,"path":"rotation"}},{"sampler":1,"target":{"node":4,"path":"rotation"}},{"sampler":2,"target":{"node":5,"path":"rotation"}},{"sampler":3,"target":{"node":6,"path":"rotation"}},{"sampler":4,"target":{"node":7,"path":"rotation"}},{"sampler":5,"target":{"node":8,"path":"rotation"}}],"samplers":[{"input":37,"interpolation":"LINEAR","output":38},{"input":37,"interpolation":"LINEAR","output":39},{"input":37,"interpolation":"LINEAR","output":40},{"input":37,"interpolation":"LINEAR","output":41},{"input":37,"interpolation":"LINEAR","output":42},{"input":37,"interpolation":"LINEAR","output":43}]}],"nodes":[{"name":"RootNode","translation":[0,0,0],"rotation":[0,0,0,1],"scale":[1,1,1],"children":[1,2,10,11]},{"name":"Pufferfish.001","translation":[0,0,0],"rotation":[-0.707106828689575,0,0,0.707106709480286],"scale":[100,100,100]},{"name":"Fish_Armature","translation":[0,0,0],"rotation":[-0.707106828689575,0,0,0.707106709480286],"scale":[100,100,100],"children":[3]},{"name":"Main1","translation":[-2.22044620641463e-18,-0.0140770161524415,-2.98023217215615e-10],"rotation":[-0.00000315159491037775,-0.00000315159513775143,0.0277792774140835,0.999614059925079],"scale":[0.99999988079071,0.99999988079071,1],"children":[4]},{"name":"Main2","translation":[3.68920415050322e-11,0.0090508135035634,5.11590747724416e-15],"rotation":[-0.00559093430638313,0.0479917973279953,0.00983929261565208,0.998783648014069],"scale":[1,1,1],"children":[5]},{"name":"Main3","translation":[4.30736696310774e-11,0.0093962037935853,1.86264510759759e-11],"rotation":[-0.00000312262022816867,-0.00000312195084006817,-0.00278482912108302,0.99999612569809],"scale":[1,1,1],"children":[6]},{"name":"Main4","translation":[1.97906049187457e-11,0.00692633632570505,-2.79396766139639e-11],"rotation":[-0.00797820743173361,0.000513189705088735,-0.0527467653155327,0.998575925827026],"scale":[1,0.99999988079071,0.999999940395355],"children":[7]},{"name":"Main5","translation":[-4.65661233531312e-12,0.00665868632495403,-4.65661276899398e-12],"rotation":[0.0079312976449728,0.000961462210398167,-0.120337322354317,0.992700934410095],"scale":[1,1,0.999999940395355],"children":[8]},{"name":"Main6","translation":[4.88944329468666e-10,0.00430159782990813,1.39698377865649e-10],"rotation":[1.55818735692037e-8,1.40472957710358e-8,-0.165566354990005,0.986198663711548],"scale":[1,1,1],"children":[9]},{"name":"Main6_end","translation":[0,0.00523067684844136,6.93889374881086e-20],"rotation":[-1.12757025938492e-17,1.30104260698261e-17,2.77555756156289e-17,1],"scale":[1,1,1]},{"name":"Pufferfish.002","translation":[0,0,0],"rotation":[-0.707106828689575,0,0,0.707106709480286],"scale":[100,100,100],"mesh":0,"skin":0},{"name":"Pufferfish","translation":[0,0,0],"rotation":[-0.707106828689575,0,0,0.707106709480286],"scale":[100,100,100],"mesh":1,"skin":1}]}