{"asset":{"generator":"FBX2glTF v0.9.7","version":"2.0"},"scene":0,"buffers":[{"byteLength":505192,"uri":"data:application/octet-stream;base64,"}],"bufferViews":[{"buffer":0,"byteLength":108,"byteOffset":0},{"buffer":0,"byteLength":432,"byteOffset":108},{"buffer":0,"byteLength":432,"byteOffset":540},{"buffer":0,"byteLength":432,"byteOffset":972},{"buffer":0,"byteLength":432,"byteOffset":1404},{"buffer":0,"byteLength":432,"byteOffset":1836},{"buffer":0,"byteLength":324,"byteOffset":2268},{"buffer":0,"byteLength":432,"byteOffset":2592},{"buffer":0,"byteLength":432,"byteOffset":3024},{"buffer":0,"byteLength":432,"byteOffset":3456},{"buffer":0,"byteLength":432,"byteOffset":3888},{"buffer":0,"byteLength":432,"byteOffset":4320},{"buffer":0,"byteLength":432,"byteOffset":4752},{"buffer":0,"byteLength":432,"byteOffset":5184},{"buffer":0,"byteLength":432,"byteOffset":5616},{"buffer":0,"byteLength":100,"byteOffset":6048},{"buffer":0,"byteLength":400,"byteOffset":6148},{"buffer":0,"byteLength":400,"byteOffset":6548},{"buffer":0,"byteLength":400,"byteOffset":6948},{"buffer":0,"byteLength":400,"byteOffset":7348},{"buffer":0,"byteLength":400,"byteOffset":7748},{"buffer":0,"byteLength":400,"byteOffset":8148},{"buffer":0,"byteLength":400,"byteOffset":8548},{"buffer":0,"byteLength":400,"byteOffset":8948},{"buffer":0,"byteLength":400,"byteOffset":9348},{"buffer":0,"byteLength":400,"byteOffset":9748},{"buffer":0,"byteLength":400,"byteOffset":10148},{"buffer":0,"byteLength":400,"byteOffset":10548},{"buffer":0,"byteLength":132,"byteOffset":10948},{"buffer":0,"byteLength":528,"byteOffset":11080},{"buffer":0,"byteLength":528,"byteOffset":11608},{"buffer":0,"byteLength":528,"byteOffset":12136},{"buffer":0,"byteLength":528,"byteOffset":12664},{"buffer":0,"byteLength":528,"byteOffset":13192},{"buffer":0,"byteLength":528,"byteOffset":13720},{"buffer":0,"byteLength":528,"byteOffset":14248},{"buffer":0,"byteLength":528,"byteOffset":14776},{"buffer":0,"byteLength":528,"byteOffset":15304},{"buffer":0,"byteLength":528,"byteOffset":15832},{"buffer":0,"byteLength":528,"byteOffset":16360},{"buffer":0,"byteLength":528,"byteOffset":16888},{"buffer":0,"byteLength":9014,"byteOffset":17416},{"buffer":0,"byteLength":21336,"byteOffset":26432,"target":34963},{"buffer":0,"byteLength":32016,"byteOffset":47768,"target":34962},{"buffer":0,"byteLength":32016,"byteOffset":79784,"target":34962},{"buffer":0,"byteLength":21344,"byteOffset":111800,"target":34962},{"buffer":0,"byteLength":21344,"byteOffset":133144,"target":34962},{"buffer":0,"byteLength":42688,"byteOffset":154488,"target":34962},{"buffer":0,"byteLength":18288,"byteOffset":197176,"target":34963},{"buffer":0,"byteLength":61536,"byteOffset":215464,"target":34962},{"buffer":0,"byteLength":61536,"byteOffset":277000,"target":34962},{"buffer":0,"byteLength":41024,"byteOffset":338536,"target":34962},{"buffer":0,"byteLength":41024,"byteOffset":379560,"target":34962},{"buffer":0,"byteLength":82048,"byteOffset":420584,"target":34962},{"buffer":0,"byteLength":1280,"byteOffset":502632},{"buffer":0,"byteLength":1280,"byteOffset":503912}],"scenes":[{"name":"Root Scene","nodes":[0]}],"accessors":[{"componentType":5126,"type":"SCALAR","count":27,"bufferView":0,"byteOffset":0,"min":[0],"max":[1.08333337306976]},{"componentType":5126,"type":"VEC4","count":27,"bufferView":1,"byteOffset":0},{"componentType":5126,"type":"VEC4","count":27,"bufferView":2,"byteOffset":0},{"componentType":5126,"type":"VEC4","count":27,"bufferView":3,"byteOffset":0},{"componentType":5126,"type":"VEC4","count":27,"bufferView":4,"byteOffset":0},{"componentType":5126,"type":"VEC4","count":27,"bufferView":5,"byteOffset":0},{"componentType":5126,"type":"VEC3","count":27,"bufferView":6,"byteOffset":0},{"componentType":5126,"type":"VEC4","count":27,"bufferView":7,"byteOffset":0},{"componentType":5126,"type":"VEC4","count":27,"bufferView":8,"byteOffset":0},{"componentType":5126,"type":"VEC4","count":27,"bufferView":9,"byteOffset":0},{"componentType":5126,"type":"VEC4","count":27,"bufferView":10,"byteOffset":0},{"componentType":5126,"type":"VEC4","count":27,"bufferView":11,"byteOffset":0},{"componentType":5126,"type":"VEC4","count":27,"bufferView":12,"byteOffset":0},{"componentType":5126,"type":"VEC4","count":27,"bufferView":13,"byteOffset":0},{"componentType":5126,"type":"VEC4","count":27,"bufferView":14,"byteOffset":0},{"componentType":5126,"type":"SCALAR","count":25,"bufferView":15,"byteOffset":0,"min":[0],"max":[1]},{"componentType":5126,"type":"VEC4","count":25,"bufferView":16,"byteOffset":0},{"componentType":5126,"type":"VEC4","count":25,"bufferView":17,"byteOffset":0},{"componentType":5126,"type":"VEC4","count":25,"bufferView":18,"byteOffset":0},{"componentType":5126,"type":"VEC4","count":25,"bufferView":19,"byteOffset":0},{"componentType":5126,"type":"VEC4","count":25,"bufferView":20,"byteOffset":0},{"componentType":5126,"type":"VEC4","count":25,"bufferView":21,"byteOffset":0},{"componentType":5126,"type":"VEC4","count":25,"bufferView":22,"byteOffset":0},{"componentType":5126,"type":"VEC4","count":25,"bufferView":23,"byteOffset":0},{"componentType":5126,"type":"VEC4","count":25,"bufferView":24,"byteOffset":0},{"componentType":5126,"type":"VEC4","count":25,"bufferView":25,"byteOffset":0},{"componentType":5126,"type":"VEC4","count":25,"bufferView":26,"byteOffset":0},{"componentType":5126,"type":"VEC4","count":25,"bufferView":27,"byteOffset":0},{"componentType":5126,"type":"SCALAR","count":33,"bufferView":28,"byteOffset":0,"min":[0],"max":[1.33333337306976]},{"componentType":5126,"type":"VEC4","count":33,"bufferView":29,"byteOffset":0},{"componentType":5126,"type":"VEC4","count":33,"bufferView":30,"byteOffset":0},{"componentType":5126,"type":"VEC4","count":33,"bufferView":31,"byteOffset":0},{"componentType":5126,"type":"VEC4","count":33,"bufferView":32,"byteOffset":0},{"componentType":5126,"type":"VEC4","count":33,"bufferView":33,"byteOffset":0},{"componentType":5126,"type":"VEC4","count":33,"bufferView":34,"byteOffset":0},{"componentType":5126,"type":"VEC4","count":33,"bufferView":35,"byteOffset":0},{"componentType":5126,"type":"VEC4","count":33,"bufferView":36,"byteOffset":0},{"componentType":5126,"type":"VEC4","count":33,"bufferView":37,"byteOffset":0},{"componentType":5126,"type":"VEC4","count":33,"bufferView":38,"byteOffset":0},{"componentType":5126,"type":"VEC4","count":33,"bufferView":39,"byteOffset":0},{"componentType":5126,"type":"VEC4","count":33,"bufferView":40,"byteOffset":0},{"componentType":5123,"type":"SCALAR","count":10668,"bufferView":42,"byteOffset":0},{"componentType":5126,"type":"VEC3","count":2668,"bufferView":43,"byteOffset":0,"min":[-0.0114958519116044,-0.0281395819038153,-0.00724394666031003],"max":[0.0114958519116044,0.0281989444047213,0.0128894876688719]},{"componentType":5126,"type":"VEC3","count":2668,"bufferView":44,"byteOffset":0},{"componentType":5126,"type":"VEC2","count":2668,"bufferView":45,"byteOffset":0},{"componentType":5123,"type":"VEC4","count":2668,"bufferView":46,"byteOffset":0},{"componentType":5126,"type":"VEC4","count":2668,"bufferView":47,"byteOffset":0},{"componentType":5123,"type":"SCALAR","count":9144,"bufferView":48,"byteOffset":0},{"componentType":5126,"type":"VEC3","count":5128,"bufferView":49,"byteOffset":0,"min":[-0.00532515207305551,-0.0253070797771215,-0.000489906524308026],"max":[0.00532515207305551,-0.0186979118734598,0.00473403232172132]},{"componentType":5126,"type":"VEC3","count":5128,"bufferView":50,"byteOffset":0},{"componentType":5126,"type":"VEC2","count":5128,"bufferView":51,"byteOffset":0},{"componentType":5123,"type":"VEC4","count":5128,"bufferView":52,"byteOffset":0},{"componentType":5126,"type":"VEC4","count":5128,"bufferView":53,"byteOffset":0},{"componentType":5126,"type":"MAT4","count":20,"bufferView":54,"byteOffset":0},{"componentType":5126,"type":"MAT4","count":20,"bufferView":55,"byteOffset":0}],"images":[{"name":"Atlas_Pirate.png","bufferView":41,"mimeType":"image/png"}],"samplers":[{}],"textures":[{"name":"base_color_texture","sampler":0,"source":0}],"materials":[{"name":"AtlasMaterial","alphaMode":"OPAQUE","extras":{"fromFBX":{"shadingModel":"Phong","isTruePBR":false}},"pbrMetallicRoughness":{"baseColorTexture":{"index":0,"texCoord":0},"baseColorFactor":[1,1,1,1],"metallicFactor":0.400000005960464,"roughnessFactor":0.272165536880493}}],"meshes":[{"name":"Shark","primitives":[{"material":0,"mode":4,"attributes":{"JOINTS_0":45,"NORMAL":43,"POSITION":42,"TEXCOORD_0":44,"WEIGHTS_0":46},"indices":41}]},{"name":"Shark.001","primitives":[{"material":0,"mode":4,"attributes":{"JOINTS_0":51,"NORMAL":49,"POSITION":48,"TEXCOORD_0":50,"WEIGHTS_0":52},"indices":47}]}],"skins":[{"joints":[2,3,5,6,7,8,9,10,12,13,14,15,17,18,20,21,22,24,25,26],"inverseBindMatrices":53,"skeleton":2},{"joints":[2,3,5,6,7,8,9,10,12,13,14,15,17,18,20,21,22,24,25,26],"inverseBindMatrices":54,"skeleton":2}],"animations":[{"name":"SharkArmature|SharkArmature|SharkArmature|Swim_Bite|SharkArmature|Swim_Bite","channels":[{"sampler":0,"target":{"node":5,"path":"rotation"}},{"sampler":1,"target":{"node":6,"path":"rotation"}},{"sampler":2,"target":{"node":7,"path":"rotation"}},{"sampler":3,"target":{"node":8,"path":"rotation"}},{"sampler":4,"target":{"node":9,"path":"rotation"}},{"sampler":5,"target":{"node":12,"path":"translation"}},{"sampler":6,"target":{"node":12,"path":"rotation"}},{"sampler":7,"target":{"node":13,"path":"rotation"}},{"sampler":8,"target":{"node":14,"path":"rotation"}},{"sampler":9,"target":{"node":17,"path":"rotation"}},{"sampler":10,"target":{"node":20,"path":"rotation"}},{"sampler":11,"target":{"node":21,"path":"rotation"}},{"sampler":12,"target":{"node":24,"path":"rotation"}},{"sampler":13,"target":{"node":25,"path":"rotation"}}],"samplers":[{"input":0,"interpolation":"LINEAR","output":1},{"input":0,"interpolation":"LINEAR","output":2},{"input":0,"interpolation":"LINEAR","output":3},{"input":0,"interpolation":"LINEAR","output":4},{"input":0,"interpolation":"LINEAR","output":5},{"input":0,"interpolation":"LINEAR","output":6},{"input":0,"interpolation":"LINEAR","output":7},{"input":0,"interpolation":"LINEAR","output":8},{"input":0,"interpolation":"LINEAR","output":9},{"input":0,"interpolation":"LINEAR","output":10},{"input":0,"interpolation":"LINEAR","output":11},{"input":0,"interpolation":"LINEAR","output":12},{"input":0,"interpolation":"LINEAR","output":13},{"input":0,"interpolation":"LINEAR","output":14}]},{"name":"SharkArmature|SharkArmature|SharkArmature|Swim_Fast|SharkArmature|Swim_Fast","channels":[{"sampler":0,"target":{"node":5,"path":"rotation"}},{"sampler":1,"target":{"node":6,"path":"rotation"}},{"sampler":2,"target":{"node":7,"path":"rotation"}},{"sampler":3,"target":{"node":8,"path":"rotation"}},{"sampler":4,"target":{"node":9,"path":"rotation"}},{"sampler":5,"target":{"node":12,"path":"rotation"}},{"sampler":6,"target":{"node":14,"path":"rotation"}},{"sampler":7,"target":{"node":17,"path":"rotation"}},{"sampler":8,"target":{"node":20,"path":"rotation"}},{"sampler":9,"target":{"node":21,"path":"rotation"}},{"sampler":10,"target":{"node":24,"path":"rotation"}},{"sampler":11,"target":{"node":25,"path":"rotation"}}],"samplers":[{"input":15,"interpolation":"LINEAR","output":16},{"input":15,"interpolation":"LINEAR","output":17},{"input":15,"interpolation":"LINEAR","output":18},{"input":15,"interpolation":"LINEAR","output":19},{"input":15,"interpolation":"LINEAR","output":20},{"input":15,"interpolation":"LINEAR","output":21},{"input":15,"interpolation":"LINEAR","output":22},{"input":15,"interpolation":"LINEAR","output":23},{"input":15,"interpolation":"LINEAR","output":24},{"input":15,"interpolation":"LINEAR","output":25},{"input":15,"interpolation":"LINEAR","output":26},{"input":15,"interpolation":"LINEAR","output":27}]},{"name":"SharkArmature|SharkArmature|SharkArmature|Swim|SharkArmature|Swim","channels":[{"sampler":0,"target":{"node":5,"path":"rotation"}},{"sampler":1,"target":{"node":6,"path":"rotation"}},{"sampler":2,"target":{"node":7,"path":"rotation"}},{"sampler":3,"target":{"node":8,"path":"rotation"}},{"sampler":4,"target":{"node":9,"path":"rotation"}},{"sampler":5,"target":{"node":12,"path":"rotation"}},{"sampler":6,"target":{"node":14,"path":"rotation"}},{"sampler":7,"target":{"node":17,"path":"rotation"}},{"sampler":8,"target":{"node":20,"path":"rotation"}},{"sampler":9,"target":{"node":21,"path":"rotation"}},{"sampler":10,"target":{"node":24,"path":"rotation"}},{"sampler":11,"target":{"node":25,"path":"rotation"}}],"samplers":[{"input":28,"interpolation":"LINEAR","output":29},{"input":28,"interpolation":"LINEAR","output":30},{"input":28,"interpolation":"LINEAR","output":31},{"input":28,"interpolation":"LINEAR","output":32},{"input":28,"interpolation":"LINEAR","output":33},{"input":28,"interpolation":"LINEAR","output":34},{"input":28,"interpolation":"LINEAR","output":35},{"input":28,"interpolation":"LINEAR","output":36},{"input":28,"interpolation":"LINEAR","output":37},{"input":28,"interpolation":"LINEAR","output":38},{"input":28,"interpolation":"LINEAR","output":39},{"input":28,"interpolation":"LINEAR","output":40}]}],"nodes":[{"name":"RootNode","translation":[0,0,0],"rotation":[0,0,0,1],"scale":[1,1,1],"children":[1,28,29]},{"name":"SharkArmature","translation":[0,0,0],"rotation":[-0.707106828689575,0,0,0.707106709480286],"scale":[100,100,100],"children":[2,5,12]},{"name":"Root","translation":[0,0,0],"rotation":[0.707106828689575,0,0,0.707106709480286],"scale":[1,1,1],"children":[3]},{"name":"Root_end","translation":[0,0.00307533843442798,0],"rotation":[0,0,0,1],"scale":[1,1,1],"children":[4]},{"name":"Root_end_end","translation":[0,0.00307533843442798,0],"rotation":[0,0,0,1],"scale":[1,1,1]},{"name":"Abdomen","translation":[7.41905464605685e-20,-0.00435646949335933,0.00033412451739423],"rotation":[-0.0382158681750298,0.00191504252143204,-0.0500117093324661,0.998015403747559],"scale":[1,1,0.999999821186066],"children":[6]},{"name":"Tail1","translation":[-6.05359651295601e-11,0.00436926400288939,1.49696349066586e-11],"rotation":[0.0282381903380156,0.00231492915190756,-0.047918863594532,0.998449325561523],"scale":[0.999999940395355,0.999999821186066,1],"children":[7]},{"name":"Tail2","translation":[1.49446538477704e-10,0.0058386716991663,-1.89174891029875e-12],"rotation":[-0.0128153068944812,-0.000383205217076465,0.0116739450022578,0.999849677085876],"scale":[1,0.999999701976776,0.99999988079071],"children":[8]},{"name":"Tail3","translation":[-1.85503390426334e-10,0.00639872951433063,1.62981451251598e-11],"rotation":[0.00651282630860806,-0.00132909754756838,0.0339629910886288,0.999400973320007],"scale":[1,0.999999940395355,0.99999988079071],"children":[9]},{"name":"Tail4","translation":[1.50234838458552e-10,0.00537335779517889,5.47152011198815e-11],"rotation":[0.00789340399205685,-0.00199493067339063,0.0808183252811432,0.996695578098297],"scale":[0.999999940395355,1,0.99999988079071],"children":[10]},{"name":"Tail4_end","translation":[-5.68864053085427e-12,0.00522530172020197,3.49245957674549e-12],"rotation":[9.37234290177003e-9,2.91962010123825e-11,-1.09742250009592e-11,1],"scale":[1,1,0.999999940395355],"children":[11]},{"name":"Tail4_end_end","translation":[0,0.00522530497983098,1.38777874976217e-19],"rotation":[1.73472347597681e-18,5.42101086242752e-20,-3.46944695195361e-18,1],"scale":[1,1,1]},{"name":"Center","translation":[1.85036623728748e-16,-0.00434427289292216,0.000339882855769247],"rotation":[0.00445768795907497,0.0597322508692741,0.995421648025513,0.0744843930006027],"scale":[0.99999988079071,0.999999701976776,0.999994874000549],"children":[13,20,24]},{"name":"Neck","translation":[-5.16592974994512e-12,0.00608196714892983,-1.22236082367166e-10],"rotation":[0.0272235944867134,-0.00146542431320995,-0.00988948531448841,0.99957937002182],"scale":[0.999999940395355,1.00000023841858,1.00000011920929],"children":[14,17]},{"name":"Head","translation":[6.96409152567412e-10,0.00503469025716186,1.2107193025912e-10],"rotation":[-0.043508380651474,-0.00481321103870869,-0.0365916229784489,0.998371124267578],"scale":[0.999999940395355,0.999999344348907,0.999999642372131],"children":[15]},{"name":"Head_end","translation":[5.15228727737682e-11,0.0110960938036442,-9.31322519104327e-11],"rotation":[-5.355104804039e-9,2.03272065846249e-10,5.64978108741343e-9,1],"scale":[1,1,1],"children":[16]},{"name":"Head_end_end","translation":[0,0.0110960910096765,0],"rotation":[6.93889390390723e-18,-9.62964972193618e-35,-1.38777878078145e-17,1],"scale":[1,1,1]},{"name":"LowerJaw","translation":[5.35954702840513e-9,0.00508779939264059,-0.00205424195155501],"rotation":[-0.194596290588379,0.000782920105848461,-0.0361823514103889,0.980215549468994],"scale":[0.999999940395355,0.99999988079071,0.999999821186066],"children":[18]},{"name":"LowerJaw_end","translation":[-5.81849221581443e-11,0.00725905224680901,-1.30385161001279e-10],"rotation":[-6.98491930961609e-9,-1.4279066817835e-10,4.86011231259909e-10,1],"scale":[1,1,1],"children":[19]},{"name":"LowerJaw_end_end","translation":[1.11022299980974e-18,0.0072590452618897,5.55111499904869e-19],"rotation":[-1.38777878078145e-17,-3.46944695195361e-18,1.38777878078145e-17,1],"scale":[1,1,1]},{"name":"Fin1.L","translation":[-0.00492427730932832,0.00515494449064136,-0.00403109053149819],"rotation":[-0.132644951343536,-0.1363595277071,0.807590842247009,0.558218955993652],"scale":[1.00000011920929,0.99999988079071,1],"children":[21]},{"name":"Fin2.L","translation":[-2.23517412911711e-10,0.00437444401904941,-7.45058043039037e-11],"rotation":[-0.0119085069745779,-0.0901429653167725,0.24984484910965,0.964007258415222],"scale":[0.99999988079071,0.999999821186066,0.999999761581421],"children":[22]},{"name":"Fin2.L_end","translation":[2.35013432325903e-11,0.00487810559570789,-4.47034825823422e-10],"rotation":[-2.08616270924722e-7,3.18992704251286e-7,-1.44208286201319e-7,1],"scale":[1,0.999999940395355,1],"children":[23]},{"name":"Fin2.L_end_end","translation":[0,0.00487810140475631,-2.22044599961948e-18],"rotation":[-2.77555756156289e-17,3.85185988877447e-33,-1.38777878078145e-16,1],"scale":[1,1,1]},{"name":"Fin1.R","translation":[0.0049242964014411,0.00515494402498007,-0.00403106771409512],"rotation":[-0.132643178105354,0.136358112096786,-0.807591319084167,0.558219075202942],"scale":[1.00000011920929,0.999999940395355,1],"children":[25]},{"name":"Fin2.R","translation":[1.00582830953044e-9,0.00437444495037198,-1.49011608607807e-10],"rotation":[-0.0119090033695102,0.0901432186365128,-0.249844700098038,0.964007258415222],"scale":[0.999999821186066,0.999999940395355,0.999999642372131],"children":[26]},{"name":"Fin2.R_end","translation":[4.31355146046641e-10,0.00487810373306274,-2.98023217215615e-10],"rotation":[2.42143869400024e-7,-4.14975147577934e-7,-1.62791366165038e-7,1],"scale":[1,1,1],"children":[27]},{"name":"Fin2.R_end_end","translation":[2.22044599961948e-18,0.00487810233607888,0],"rotation":[-1.15555796663234e-33,1.38777878078145e-17,8.32667268468867e-17,1],"scale":[1,1,1]},{"name":"Shark","translation":[3.33786012163273e-8,-1.84599731056778e-8,2.38418600417845e-8],"rotation":[-0.707106828689575,9.682453949722e-9,-1.15743343798158e-8,0.707106709480286],"scale":[100,99.9999847412109,100],"mesh":0,"skin":0},{"name":"Shark.001","translation":[3.33786012163273e-8,-1.84599731056778e-8,2.38418600417845e-8],"rotation":[-0.707106828689575,9.682453949722e-9,-1.15743343798158e-8,0.707106709480286],"scale":[100,99.9999847412109,100],"mesh":1,"skin":1}]}