{"asset":{"generator":"FBX2glTF v0.9.7","version":"2.0"},"scene":0,"buffers":[{"byteLength":130272,"uri":"data:application/octet-stream;base64,"}],"bufferViews":[{"buffer":0,"byteLength":64,"byteOffset":0},{"buffer":0,"byteLength":192,"byteOffset":64},{"buffer":0,"byteLength":256,"byteOffset":256},{"buffer":0,"byteLength":256,"byteOffset":512},{"buffer":0,"byteLength":256,"byteOffset":768},{"buffer":0,"byteLength":256,"byteOffset":1024},{"buffer":0,"byteLength":256,"byteOffset":1280},{"buffer":0,"byteLength":256,"byteOffset":1536},{"buffer":0,"byteLength":292,"byteOffset":1792},{"buffer":0,"byteLength":1168,"byteOffset":2084},{"buffer":0,"byteLength":1168,"byteOffset":3252},{"buffer":0,"byteLength":1168,"byteOffset":4420},{"buffer":0,"byteLength":1168,"byteOffset":5588},{"buffer":0,"byteLength":1168,"byteOffset":6756},{"buffer":0,"byteLength":1168,"byteOffset":7924},{"buffer":0,"byteLength":148,"byteOffset":9092},{"buffer":0,"byteLength":444,"byteOffset":9240},{"buffer":0,"byteLength":592,"byteOffset":9684},{"buffer":0,"byteLength":592,"byteOffset":10276},{"buffer":0,"byteLength":592,"byteOffset":10868},{"buffer":0,"byteLength":592,"byteOffset":11460},{"buffer":0,"byteLength":592,"byteOffset":12052},{"buffer":0,"byteLength":592,"byteOffset":12644},{"buffer":0,"byteLength":104,"byteOffset":13236},{"buffer":0,"byteLength":416,"byteOffset":13340},{"buffer":0,"byteLength":416,"byteOffset":13756},{"buffer":0,"byteLength":416,"byteOffset":14172},{"buffer":0,"byteLength":416,"byteOffset":14588},{"buffer":0,"byteLength":416,"byteOffset":15004},{"buffer":0,"byteLength":416,"byteOffset":15420},{"buffer":0,"byteLength":116,"byteOffset":15836},{"buffer":0,"byteLength":464,"byteOffset":15952},{"buffer":0,"byteLength":464,"byteOffset":16416},{"buffer":0,"byteLength":464,"byteOffset":16880},{"buffer":0,"byteLength":464,"byteOffset":17344},{"buffer":0,"byteLength":464,"byteOffset":17808},{"buffer":0,"byteLength":464,"byteOffset":18272},{"buffer":0,"byteLength":224,"byteOffset":18736},{"buffer":0,"byteLength":896,"byteOffset":18960},{"buffer":0,"byteLength":896,"byteOffset":19856},{"buffer":0,"byteLength":896,"byteOffset":20752},{"buffer":0,"byteLength":896,"byteOffset":21648},{"buffer":0,"byteLength":896,"byteOffset":22544},{"buffer":0,"byteLength":896,"byteOffset":23440},{"buffer":0,"byteLength":636,"byteOffset":24336,"target":34963},{"buffer":0,"byteLength":2616,"byteOffset":24972,"target":34962},{"buffer":0,"byteLength":2616,"byteOffset":27588,"target":34962},{"buffer":0,"byteLength":1744,"byteOffset":30204,"target":34962},{"buffer":0,"byteLength":3488,"byteOffset":31948,"target":34962},{"buffer":0,"byteLength":3312,"byteOffset":35436,"target":34963},{"buffer":0,"byteLength":13272,"byteOffset":38748,"target":34962},{"buffer":0,"byteLength":13272,"byteOffset":52020,"target":34962},{"buffer":0,"byteLength":8848,"byteOffset":65292,"target":34962},{"buffer":0,"byteLength":17696,"byteOffset":74140,"target":34962},{"buffer":0,"byteLength":1476,"byteOffset":91836,"target":34963},{"buffer":0,"byteLength":5280,"byteOffset":93312,"target":34962},{"buffer":0,"byteLength":5280,"byteOffset":98592,"target":34962},{"buffer":0,"byteLength":3520,"byteOffset":103872,"target":34962},{"buffer":0,"byteLength":7040,"byteOffset":107392,"target":34962},{"buffer":0,"byteLength":2880,"byteOffset":114432,"target":34963},{"buffer":0,"byteLength":3144,"byteOffset":117312,"target":34962},{"buffer":0,"byteLength":3144,"byteOffset":120456,"target":34962},{"buffer":0,"byteLength":2096,"byteOffset":123600,"target":34962},{"buffer":0,"byteLength":4192,"byteOffset":125696,"target":34962},{"buffer":0,"byteLength":384,"byteOffset":129888}],"scenes":[{"name":"Root Scene","nodes":[0]}],"accessors":[{"componentType":5126,"type":"SCALAR","count":16,"bufferView":0,"byteOffset":0,"min":[0],"max":[0.625]},{"componentType":5126,"type":"VEC3","count":16,"bufferView":1,"byteOffset":0},{"componentType":5126,"type":"VEC4","count":16,"bufferView":2,"byteOffset":0},{"componentType":5126,"type":"VEC4","count":16,"bufferView":3,"byteOffset":0},{"componentType":5126,"type":"VEC4","count":16,"bufferView":4,"byteOffset":0},{"componentType":5126,"type":"VEC4","count":16,"bufferView":5,"byteOffset":0},{"componentType":5126,"type":"VEC4","count":16,"bufferView":6,"byteOffset":0},{"componentType":5126,"type":"VEC4","count":16,"bufferView":7,"byteOffset":0},{"componentType":5126,"type":"SCALAR","count":73,"bufferView":8,"byteOffset":0,"min":[0],"max":[3]},{"componentType":5126,"type":"VEC4","count":73,"bufferView":9,"byteOffset":0},{"componentType":5126,"type":"VEC4","count":73,"bufferView":10,"byteOffset":0},{"componentType":5126,"type":"VEC4","count":73,"bufferView":11,"byteOffset":0},{"componentType":5126,"type":"VEC4","count":73,"bufferView":12,"byteOffset":0},{"componentType":5126,"type":"VEC4","count":73,"bufferView":13,"byteOffset":0},{"componentType":5126,"type":"VEC4","count":73,"bufferView":14,"byteOffset":0},{"componentType":5126,"type":"SCALAR","count":37,"bufferView":15,"byteOffset":0,"min":[0],"max":[1.5]},{"componentType":5126,"type":"VEC3","count":37,"bufferView":16,"byteOffset":0},{"componentType":5126,"type":"VEC4","count":37,"bufferView":17,"byteOffset":0},{"componentType":5126,"type":"VEC4","count":37,"bufferView":18,"byteOffset":0},{"componentType":5126,"type":"VEC4","count":37,"bufferView":19,"byteOffset":0},{"componentType":5126,"type":"VEC4","count":37,"bufferView":20,"byteOffset":0},{"componentType":5126,"type":"VEC4","count":37,"bufferView":21,"byteOffset":0},{"componentType":5126,"type":"VEC4","count":37,"bufferView":22,"byteOffset":0},{"componentType":5126,"type":"SCALAR","count":26,"bufferView":23,"byteOffset":0,"min":[0],"max":[1.04166662693024]},{"componentType":5126,"type":"VEC4","count":26,"bufferView":24,"byteOffset":0},{"componentType":5126,"type":"VEC4","count":26,"bufferView":25,"byteOffset":0},{"componentType":5126,"type":"VEC4","count":26,"bufferView":26,"byteOffset":0},{"componentType":5126,"type":"VEC4","count":26,"bufferView":27,"byteOffset":0},{"componentType":5126,"type":"VEC4","count":26,"bufferView":28,"byteOffset":0},{"componentType":5126,"type":"VEC4","count":26,"bufferView":29,"byteOffset":0},{"componentType":5126,"type":"SCALAR","count":29,"bufferView":30,"byteOffset":0,"min":[0],"max":[1.16666662693024]},{"componentType":5126,"type":"VEC4","count":29,"bufferView":31,"byteOffset":0},{"componentType":5126,"type":"VEC4","count":29,"bufferView":32,"byteOffset":0},{"componentType":5126,"type":"VEC4","count":29,"bufferView":33,"byteOffset":0},{"componentType":5126,"type":"VEC4","count":29,"bufferView":34,"byteOffset":0},{"componentType":5126,"type":"VEC4","count":29,"bufferView":35,"byteOffset":0},{"componentType":5126,"type":"VEC4","count":29,"bufferView":36,"byteOffset":0},{"componentType":5126,"type":"SCALAR","count":56,"bufferView":37,"byteOffset":0,"min":[0],"max":[2.29166674613953]},{"componentType":5126,"type":"VEC4","count":56,"bufferView":38,"byteOffset":0},{"componentType":5126,"type":"VEC4","count":56,"bufferView":39,"byteOffset":0},{"componentType":5126,"type":"VEC4","count":56,"bufferView":40,"byteOffset":0},{"componentType":5126,"type":"VEC4","count":56,"bufferView":41,"byteOffset":0},{"componentType":5126,"type":"VEC4","count":56,"bufferView":42,"byteOffset":0},{"componentType":5126,"type":"VEC4","count":56,"bufferView":43,"byteOffset":0},{"componentType":5123,"type":"SCALAR","count":318,"bufferView":44,"byteOffset":0},{"componentType":5126,"type":"VEC3","count":218,"bufferView":45,"byteOffset":0,"min":[-0.0113064711913466,-0.0337042100727558,-0.00741264969110489],"max":[0.0113064711913466,0.0238314867019653,-0.000466492463601753]},{"componentType":5126,"type":"VEC3","count":218,"bufferView":46,"byteOffset":0},{"componentType":5123,"type":"VEC4","count":218,"bufferView":47,"byteOffset":0},{"componentType":5126,"type":"VEC4","count":218,"bufferView":48,"byteOffset":0},{"componentType":5123,"type":"SCALAR","count":1656,"bufferView":49,"byteOffset":0},{"componentType":5126,"type":"VEC3","count":1106,"bufferView":50,"byteOffset":0,"min":[-0.0116775399073958,-0.0337042100727558,-0.00541440071538091],"max":[0.0116775399073958,0.023858955129981,0.0121979461982846]},{"componentType":5126,"type":"VEC3","count":1106,"bufferView":51,"byteOffset":0},{"componentType":5123,"type":"VEC4","count":1106,"bufferView":52,"byteOffset":0},{"componentType":5126,"type":"VEC4","count":1106,"bufferView":53,"byteOffset":0},{"componentType":5123,"type":"SCALAR","count":738,"bufferView":54,"byteOffset":0},{"componentType":5126,"type":"VEC3","count":440,"bufferView":55,"byteOffset":0,"min":[-0.0179676376283169,-0.00614921748638153,-0.0121888183057308],"max":[0.0179676376283169,0.0307781044393778,0.026024729013443]},{"componentType":5126,"type":"VEC3","count":440,"bufferView":56,"byteOffset":0},{"componentType":5123,"type":"VEC4","count":440,"bufferView":57,"byteOffset":0},{"componentType":5126,"type":"VEC4","count":440,"bufferView":58,"byteOffset":0},{"componentType":5123,"type":"SCALAR","count":1440,"bufferView":59,"byteOffset":0},{"componentType":5126,"type":"VEC3","count":262,"bufferView":60,"byteOffset":0,"min":[-0.011324473656714,-0.0118282772600651,-0.000738649629056454],"max":[0.011324473656714,-0.00478514563292265,0.00701379170641303]},{"componentType":5126,"type":"VEC3","count":262,"bufferView":61,"byteOffset":0},{"componentType":5123,"type":"VEC4","count":262,"bufferView":62,"byteOffset":0},{"componentType":5126,"type":"VEC4","count":262,"bufferView":63,"byteOffset":0},{"componentType":5126,"type":"MAT4","count":6,"bufferView":64,"byteOffset":0}],"samplers":[{}],"materials":[{"name":"Swordfish_Light","alphaMode":"OPAQUE","extras":{"fromFBX":{"shadingModel":"Phong","isTruePBR":false}},"pbrMetallicRoughness":{"baseColorFactor":[0.22044925391674,0.22044925391674,0.22044925391674,1],"metallicFactor":0.400000005960464,"roughnessFactor":0.415087103843689}},{"name":"Swordfish_Main","alphaMode":"OPAQUE","extras":{"fromFBX":{"shadingModel":"Phong","isTruePBR":false}},"pbrMetallicRoughness":{"baseColorFactor":[0.116539977490902,0.132228270173073,0.1584392786026,1],"metallicFactor":0.400000005960464,"roughnessFactor":0.415087103843689}},{"name":"Swordfish_Dark","alphaMode":"OPAQUE","extras":{"fromFBX":{"shadingModel":"Phong","isTruePBR":false}},"pbrMetallicRoughness":{"baseColorFactor":[0.0325465053319931,0.0325465053319931,0.0325465053319931,1],"metallicFactor":0.400000005960464,"roughnessFactor":0.415087103843689}},{"name":"Eyes","alphaMode":"OPAQUE","extras":{"fromFBX":{"shadingModel":"Phong","isTruePBR":false}},"pbrMetallicRoughness":{"baseColorFactor":[0.00797184184193611,0.00797184184193611,0.00797184184193611,1],"metallicFactor":0.400000005960464,"roughnessFactor":0.415087103843689}}],"meshes":[{"name":"Swordfish","primitives":[{"material":0,"mode":4,"attributes":{"JOINTS_0":47,"NORMAL":46,"POSITION":45,"WEIGHTS_0":48},"indices":44},{"material":1,"mode":4,"attributes":{"JOINTS_0":52,"NORMAL":51,"POSITION":50,"WEIGHTS_0":53},"indices":49},{"material":2,"mode":4,"attributes":{"JOINTS_0":57,"NORMAL":56,"POSITION":55,"WEIGHTS_0":58},"indices":54},{"material":3,"mode":4,"attributes":{"JOINTS_0":62,"NORMAL":61,"POSITION":60,"WEIGHTS_0":63},"indices":59}]}],"skins":[{"joints":[2,3,4,5,6,7],"inverseBindMatrices":64,"skeleton":2}],"animations":[{"name":"Fish_Armature|Attack","channels":[{"sampler":0,"target":{"node":2,"path":"translation"}},{"sampler":1,"target":{"node":2,"path":"rotation"}},{"sampler":2,"target":{"node":3,"path":"rotation"}},{"sampler":3,"target":{"node":4,"path":"rotation"}},{"sampler":4,"target":{"node":5,"path":"rotation"}},{"sampler":5,"target":{"node":6,"path":"rotation"}},{"sampler":6,"target":{"node":7,"path":"rotation"}}],"samplers":[{"input":0,"interpolation":"LINEAR","output":1},{"input":0,"interpolation":"LINEAR","output":2},{"input":0,"interpolation":"LINEAR","output":3},{"input":0,"interpolation":"LINEAR","output":4},{"input":0,"interpolation":"LINEAR","output":5},{"input":0,"interpolation":"LINEAR","output":6},{"input":0,"interpolation":"LINEAR","output":7}]},{"name":"Fish_Armature|Death","channels":[{"sampler":0,"target":{"node":2,"path":"rotation"}},{"sampler":1,"target":{"node":3,"path":"rotation"}},{"sampler":2,"target":{"node":4,"path":"rotation"}},{"sampler":3,"target":{"node":5,"path":"rotation"}},{"sampler":4,"target":{"node":6,"path":"rotation"}},{"sampler":5,"target":{"node":7,"path":"rotation"}}],"samplers":[{"input":8,"interpolation":"LINEAR","output":9},{"input":8,"interpolation":"LINEAR","output":10},{"input":8,"interpolation":"LINEAR","output":11},{"input":8,"interpolation":"LINEAR","output":12},{"input":8,"interpolation":"LINEAR","output":13},{"input":8,"interpolation":"LINEAR","output":14}]},{"name":"Fish_Armature|Out_Of_Water","channels":[{"sampler":0,"target":{"node":2,"path":"translation"}},{"sampler":1,"target":{"node":2,"path":"rotation"}},{"sampler":2,"target":{"node":3,"path":"rotation"}},{"sampler":3,"target":{"node":4,"path":"rotation"}},{"sampler":4,"target":{"node":5,"path":"rotation"}},{"sampler":5,"target":{"node":6,"path":"rotation"}},{"sampler":6,"target":{"node":7,"path":"rotation"}}],"samplers":[{"input":15,"interpolation":"LINEAR","output":16},{"input":15,"interpolation":"LINEAR","output":17},{"input":15,"interpolation":"LINEAR","output":18},{"input":15,"interpolation":"LINEAR","output":19},{"input":15,"interpolation":"LINEAR","output":20},{"input":15,"interpolation":"LINEAR","output":21},{"input":15,"interpolation":"LINEAR","output":22}]},{"name":"Fish_Armature|Swimming_Fast","channels":[{"sampler":0,"target":{"node":2,"path":"rotation"}},{"sampler":1,"target":{"node":3,"path":"rotation"}},{"sampler":2,"target":{"node":4,"path":"rotation"}},{"sampler":3,"target":{"node":5,"path":"rotation"}},{"sampler":4,"target":{"node":6,"path":"rotation"}},{"sampler":5,"target":{"node":7,"path":"rotation"}}],"samplers":[{"input":23,"interpolation":"LINEAR","output":24},{"input":23,"interpolation":"LINEAR","output":25},{"input":23,"interpolation":"LINEAR","output":26},{"input":23,"interpolation":"LINEAR","output":27},{"input":23,"interpolation":"LINEAR","output":28},{"input":23,"interpolation":"LINEAR","output":29}]},{"name":"Fish_Armature|Swimming_Impulse","channels":[{"sampler":0,"target":{"node":2,"path":"rotation"}},{"sampler":1,"target":{"node":3,"path":"rotation"}},{"sampler":2,"target":{"node":4,"path":"rotation"}},{"sampler":3,"target":{"node":5,"path":"rotation"}},{"sampler":4,"target":{"node":6,"path":"rotation"}},{"sampler":5,"target":{"node":7,"path":"rotation"}}],"samplers":[{"input":30,"interpolation":"LINEAR","output":31},{"input":30,"interpolation":"LINEAR","output":32},{"input":30,"interpolation":"LINEAR","output":33},{"input":30,"interpolation":"LINEAR","output":34},{"input":30,"interpolation":"LINEAR","output":35},{"input":30,"interpolation":"LINEAR","output":36}]},{"name":"Fish_Armature|Swimming_Normal","channels":[{"sampler":0,"target":{"node":2,"path":"rotation"}},{"sampler":1,"target":{"node":3,"path":"rotation"}},{"sampler":2,"target":{"node":4,"path":"rotation"}},{"sampler":3,"target":{"node":5,"path":"rotation"}},{"sampler":4,"target":{"node":6,"path":"rotation"}},{"sampler":5,"target":{"node":7,"path":"rotation"}}],"samplers":[{"input":37,"interpolation":"LINEAR","output":38},{"input":37,"interpolation":"LINEAR","output":39},{"input":37,"interpolation":"LINEAR","output":40},{"input":37,"interpolation":"LINEAR","output":41},{"input":37,"interpolation":"LINEAR","output":42},{"input":37,"interpolation":"LINEAR","output":43}]}],"nodes":[{"name":"RootNode","translation":[0,0,0],"rotation":[0,0,0,1],"scale":[1,1,1],"children":[1,9]},{"name":"Fish_Armature","translation":[0,0,0],"rotation":[-0.707106828689575,0,0,0.707106709480286],"scale":[100,100,100],"children":[2]},{"name":"Main1","translation":[-2.22044620641463e-18,-0.0166770722717047,-2.98023217215615e-10],"rotation":[-0.00000315043030241213,-0.00000315043030241213,0.038861658424139,0.999244570732117],"scale":[1,1,1],"children":[3]},{"name":"Main2","translation":[3.6712761303237e-11,0.0136009138077497,3.97903933719722e-15],"rotation":[-0.00440865242853761,0.0378431938588619,0.0244563799351454,0.998974621295929],"scale":[0.999999940395355,0.999999821186066,0.99999988079071],"children":[4]},{"name":"Main3","translation":[1.37370073649556e-10,0.0093962037935853,-1.3969838306982e-11],"rotation":[-0.00000312220345222158,-0.00000312086490339425,0.0137221068143845,0.999905824661255],"scale":[1,1,1],"children":[5]},{"name":"Main4","translation":[-5.70435053359741e-11,0.00692633725702763,-1.86264510759759e-11],"rotation":[-0.00798923522233963,-0.0000474832922918722,0.0048799947835505,0.99995619058609],"scale":[1,1,1.00000011920929],"children":[6]},{"name":"Main5","translation":[-1.08848319246846e-9,0.00665868585929275,-9.31322553798797e-12],"rotation":[0.00797745771706104,0.000435929076047614,-0.0545602776110172,0.998478531837463],"scale":[1,1,1],"children":[7]},{"name":"Main6","translation":[-4.12110234826457e-10,0.00599163584411144,5.58793532279278e-11],"rotation":[1.54760577686375e-8,1.89493807312147e-8,-0.118604399263859,0.992941558361053],"scale":[0.999999940395355,1,0.999999940395355],"children":[8]},{"name":"Main6_end","translation":[2.22044599961948e-18,0.00692071672528982,0],"rotation":[-1.73472347597681e-18,8.02309607639273e-18,1.39178531137359e-35,1],"scale":[1,1,1]},{"name":"Swordfish","translation":[0,0,0],"rotation":[-0.707106828689575,0,0,0.707106709480286],"scale":[100,100,100],"mesh":0,"skin":0}]}